<?xml version="1.0" encoding="UTF-8" standalone="no"?>
<svg width="108px" height="38px" viewBox="0 0 108 38" version="1.1" xmlns="http://www.w3.org/2000/svg" xmlns:xlink="http://www.w3.org/1999/xlink">
    <!-- Generator: Sketch 50.2 (55047) - http://www.bohemiancoding.com/sketch -->
    <title>Group 2</title>
    <desc>Created with Sketch.</desc>
    <defs></defs>
    <g id="Symbols" stroke="none" stroke-width="1" fill="none" fill-rule="evenodd">
        <g id="Navbar-Transparent-V2" transform="translate(-63.000000, -22.000000)" fill="#FFFFFF">
            <g id="Group-2" transform="translate(63.000000, 22.000000)">
                <path d="M7.14851485,0 L26.8891089,0 C32.9150277,-1.10694332e-15 37.8,4.88497233 37.8,10.9108911 C37.8,10.9289854 37.8,10.9470798 37.8,10.9651741 C37.8,16.1030327 34.4149254,17.8007816 34.4149254,19 C34.4149254,20.1992184 37.8,21.8969673 37.8,27.0348259 C37.8,27.0529202 37.8,27.0710146 37.8,27.0891089 C37.8,33.1150277 32.9150277,38 26.8891089,38 L7.14851485,38 C3.20049912,38 3.10185644e-15,34.7995009 -8.8817842e-16,30.8514851 L0,7.14851485 C-4.83492483e-16,3.20049912 3.20049912,-1.62939695e-16 7.14851485,-8.8817842e-16 Z M9.45892857,7.80357143 C8.52201694,7.80357143 7.7625,8.56308837 7.7625,9.5 L7.7625,28.5 C7.7625,29.4369116 8.52201694,30.1964286 9.45892857,30.1964286 L27.2273217,30.1964286 C28.1642333,30.1964286 28.9237503,29.4369116 28.9237503,28.5 L28.9237503,9.5 C28.9237503,8.56308837 28.1642333,7.80357143 27.2273217,7.80357143 L9.45892857,7.80357143 Z M12.8303571,13.2321429 L23.8390184,13.2321429 C24.4011653,13.2321429 24.8568755,13.687853 24.8568755,14.25 C24.8568755,14.812147 24.4011653,15.2678571 23.8390184,15.2678571 L12.8303571,15.2678571 C12.2682102,15.2678571 11.8125,14.812147 11.8125,14.25 C11.8125,13.687853 12.2682102,13.2321429 12.8303571,13.2321429 Z M12.8303571,17.9821429 L23.8390184,17.9821429 C24.4011653,17.9821429 24.8568755,18.437853 24.8568755,19 C24.8568755,19.562147 24.4011653,20.0178571 23.8390184,20.0178571 L12.8303571,20.0178571 C12.2682102,20.0178571 11.8125,19.562147 11.8125,19 C11.8125,18.437853 12.2682102,17.9821429 12.8303571,17.9821429 Z M15.8678571,22.7321429 L21.0883929,22.7321429 C21.6505398,22.7321429 22.10625,23.187853 22.10625,23.75 C22.10625,24.312147 21.6505398,24.7678571 21.0883929,24.7678571 L15.8678571,24.7678571 C15.3057102,24.7678571 14.85,24.312147 14.85,23.75 C14.85,23.187853 15.3057102,22.7321429 15.8678571,22.7321429 Z" id="Combined-Shape"></path>
                <path d="M49.8351648,10.3179554 L55.393413,10.3179554 C57.2007472,10.3179554 58.5901146,10.700255 59.5615568,11.4648658 C60.5329989,12.2294765 61.0187127,13.3158132 61.0187127,14.7239082 C61.0187127,15.5112302 60.8266863,16.2304078 60.4426278,16.8814625 C60.0585693,17.5325172 59.5352032,18.0321564 58.872514,18.3803949 C59.8063034,18.6377886 60.5442871,19.1449981 61.0864874,19.9020384 C61.6286877,20.6590788 61.8997838,21.552373 61.8997838,22.5819479 C61.8997838,24.2020143 61.3764177,25.4397567 60.32967,26.2952123 C59.2829222,27.150668 57.7730677,27.5783893 55.8000611,27.5783893 L49.8351648,27.5783893 C49.373916,27.5783893 49,27.2044733 49,26.7432245 L49,11.1531202 C49,10.6918714 49.373916,10.3179554 49.8351648,10.3179554 Z M52.275777,24.8757688 L55.5515539,24.8757688 C56.4702822,24.8757688 57.1781441,24.6600155 57.6751611,24.2285025 C58.172178,23.7969895 58.4206827,23.1875811 58.4206827,22.4002591 C58.4206827,20.8256152 57.4040724,20.038305 55.3708214,20.038305 L52.275777,20.038305 L52.275777,24.8757688 Z M52.275777,17.3811066 L54.8963985,17.3811066 C55.8301879,17.3811066 56.5305194,17.1994197 56.9974141,16.8360403 C57.4643088,16.4726609 57.6977526,15.9124595 57.6977526,15.1554191 C57.6977526,14.458942 57.468074,13.9290217 57.0087099,13.5656423 C56.5493458,13.2022629 55.8603099,13.0205759 54.9415817,13.0205759 L52.275777,13.0205759 L52.275777,17.3811066 Z M69.4453666,27.9417669 C68.4362716,27.9417669 67.5288528,27.6919473 66.7230829,27.1923007 C65.9173131,26.692654 65.2809904,25.9772616 64.8140957,25.046102 C64.347201,24.1149423 64.1137572,23.0437463 64.1137572,21.8324817 C64.1137572,20.712062 64.3434358,19.6862877 64.8027999,18.755128 C65.262164,17.8239684 65.9135476,17.0745097 66.7569703,16.5067294 C67.6003929,15.9389491 68.5492292,15.6550632 69.6035075,15.6550632 C70.3866857,15.6550632 71.0983129,15.8178245 71.7384104,16.1433518 C72.378508,16.4688792 72.8868131,16.9268817 73.2633411,17.5173732 L73.2963161,16.4234415 C73.3031171,16.1978186 73.4879835,16.0184408 73.7137089,16.0184408 L75.89562,16.0184408 C76.1262444,16.0184408 76.3132024,16.2053988 76.3132024,16.4360232 L76.3132024,27.1608069 C76.3132024,27.3914313 76.1262444,27.5783893 75.89562,27.5783893 L73.7135211,27.5783893 C73.4878708,27.5783893 73.3030375,27.3991267 73.2961342,27.173582 L73.2633411,26.102168 C72.871752,26.7078003 72.3521512,27.1658029 71.7045231,27.4761894 C71.056895,27.786576 70.3038503,27.9417669 69.4453666,27.9417669 Z M70.303846,25.1255908 C71.192452,25.1255908 71.9229053,24.8152089 72.4952279,24.1944358 C73.0675504,23.5736627 73.3537073,22.771212 73.3537073,21.7870595 C73.3537073,20.8180479 73.0713156,20.0231674 72.5065236,19.4023943 C71.9417317,18.7816212 71.2075132,18.4712393 70.303846,18.4712393 C69.4001789,18.4712393 68.6659604,18.7816212 68.1011684,19.4023943 C67.5363765,20.0231674 67.2539847,20.8180479 67.2539847,21.7870595 C67.2539847,22.771212 67.5401417,23.5736627 68.1124642,24.1944358 C68.6847867,24.8152089 69.41524,25.1255908 70.303846,25.1255908 Z M83.2036298,27.9417669 C82.3300849,27.9417669 81.5017358,27.839568 80.7185576,27.6351671 C80.2617433,27.5159436 79.7434425,27.2953071 79.163655,26.9732577 L79.1636887,26.9731972 C79.0115068,26.8886661 78.9277449,26.718583 78.9535096,26.5464174 L79.2068105,24.8534124 C79.2409483,24.6252963 79.453547,24.4680458 79.681663,24.5021835 C79.7276608,24.5090671 79.7721856,24.5235857 79.8133995,24.5451399 C80.3202806,24.8102309 80.7462536,24.9961442 81.0913184,25.1028797 C81.7765993,25.314851 82.4355134,25.4208351 83.0680804,25.4208351 C84.3482755,25.4208351 84.9883634,25.0953126 84.9883634,24.4442579 C84.9883634,24.0960193 84.8528154,23.8310592 84.5817153,23.6493695 C84.3106151,23.4676798 83.7458316,23.2557117 82.8873479,23.0134588 C81.5318472,22.6349386 80.5641848,22.1542252 79.9843317,21.5713041 C79.4044787,20.988383 79.1145565,20.204858 79.1145565,19.2207055 C79.1145565,18.1154266 79.528731,17.2448432 80.3570926,16.6089293 C81.1854541,15.9730154 82.3225515,15.6550632 83.7684189,15.6550632 C84.4762915,15.6550632 85.1841535,15.7383364 85.8920261,15.9048853 C86.2971274,16.0001979 86.7817646,16.1754685 87.3459376,16.430697 L87.3459352,16.4307023 C87.515399,16.5073667 87.613727,16.6868723 87.5870924,16.8709538 L87.3507166,18.5053627 C87.3176834,18.7336672 87.1058274,18.8919659 86.8775229,18.8589328 C86.8395101,18.8534327 86.8024375,18.8427158 86.7673532,18.827085 C86.3250676,18.6300374 85.9542214,18.4924963 85.6548146,18.4144616 C85.0448393,18.2554831 84.4612297,18.175995 83.9039683,18.175995 C82.8045066,18.175995 82.254784,18.4712364 82.254784,19.0617278 C82.254784,19.3948256 82.3865669,19.6560006 82.6501364,19.8452607 C82.913706,20.0345208 83.437072,20.2427038 84.2202502,20.4698159 C85.6661176,20.8937585 86.6864931,21.3933976 87.2814073,21.9687483 C87.8763215,22.544099 88.1737741,23.3389794 88.1737741,24.3534135 C88.1737741,25.4738333 87.733243,26.3519869 86.8521676,26.9879008 C85.9710921,27.6238147 84.754925,27.9417669 83.2036298,27.9417669 Z M91.2119781,16.0184408 L93.5170409,16.0184408 C93.7476653,16.0184408 93.9346233,16.2053988 93.9346233,16.4360232 L93.9346233,27.1608069 C93.9346233,27.3914313 93.7476653,27.5783893 93.5170409,27.5783893 L91.2119781,27.5783893 C90.9813537,27.5783893 90.7943957,27.3914313 90.7943957,27.1608069 L90.7943957,16.4360232 C90.7943957,16.2053988 90.9813537,16.0184408 91.2119781,16.0184408 Z M92.3532137,13.6564867 C91.8110134,13.6564867 91.3629519,13.4785849 91.0090156,13.1227759 C90.6550793,12.7669669 90.4781138,12.3316752 90.4781138,11.8168878 C90.4781138,11.3021003 90.6550793,10.8705938 91.0090156,10.5223552 C91.3629519,10.1741167 91.8110134,10 92.3532137,10 C92.895414,10 93.3434756,10.1741167 93.6974118,10.5223552 C94.0513481,10.8705938 94.2283136,11.3021003 94.2283136,11.8168878 C94.2283136,12.346816 94.0513481,12.7858929 93.6974118,13.1341314 C93.3434756,13.48237 92.895414,13.6564867 92.3532137,13.6564867 Z M97.6957574,16.0184408 L99.8944036,16.0184408 C100.122458,16.0184408 100.308334,16.2014051 100.311934,16.4294306 L100.328036,17.4492399 C100.659381,16.8738893 101.122503,16.4310273 101.717418,16.1206407 C102.312332,15.8102542 103.008898,15.6550632 103.807137,15.6550632 C105.162638,15.6550632 106.198074,16.0752143 106.913478,16.9155291 C107.628881,17.7558439 107.986577,18.9708755 107.986577,20.5606603 L107.986577,27.1608069 C107.986577,27.3914313 107.799619,27.5783893 107.568994,27.5783893 L105.263932,27.5783893 C105.033307,27.5783893 104.846349,27.3914313 104.846349,27.1608069 L104.846349,21.1511488 C104.846349,19.3493927 104.161079,18.4485282 102.790517,18.4485282 C102.037461,18.4485282 101.453851,18.7021329 101.039671,19.20935 C100.62549,19.716567 100.418403,20.4319594 100.418403,21.3555487 L100.418403,27.1608069 C100.418403,27.3914313 100.231444,27.5783893 100.00082,27.5783893 L97.6957574,27.5783893 C97.465133,27.5783893 97.2781749,27.3914313 97.2781749,27.1608069 L97.2781749,16.4360232 C97.2781749,16.2053988 97.465133,16.0184408 97.6957574,16.0184408 Z" id="Basin"></path>
            </g>
        </g>
    </g>
</svg>