<svg version="1.1" xmlns="http://www.w3.org/2000/svg" xmlns:xlink="http://www.w3.org/1999/xlink" x="0px" y="0px" height="60" viewBox="0 0 238.766 60" enable-background="new 0 0 238.766 60" xml:space="preserve" width="238.766" >
<g>
<g>
<path d="M77.789,13.696v11.723c1.174-2.19,4.682-3.392,6.915-3.392c6.183,0,10.757,3.778,10.757,11.078 c0,6.956-4.691,11.078-10.917,11.078c-2.576,0-5.201-0.835-6.832-3.369l-0.349,2.943h-4.976V13.696H77.789z M78.05,33.104 c0,3.821,2.834,6.226,6.141,6.226c3.349,0,6.011-2.533,6.011-6.226c0-3.822-2.662-6.183-6.011-6.183 C80.884,26.921,78.05,29.412,78.05,33.104z"></path>
<path d="M103.77,35.067c0.344,2.583,2.619,4.472,6.312,4.472c1.932,0,4.466-0.748,5.668-1.993l3.35,3.297 c-2.232,2.318-5.883,3.431-9.104,3.431c-7.3,0-11.637-4.512-11.637-11.296c0-6.44,4.38-11.042,11.25-11.042 c7.086,0,11.508,4.443,10.691,13.132H103.77z M115.277,30.605c-0.344-2.583-2.49-4.122-5.496-4.122 c-2.834,0-5.152,1.539-5.926,4.122H115.277z"></path>
<path d="M141.127,22.62h5.004v21.137h-4.918l-0.258-3.115c-1.203,2.491-4.51,3.682-6.871,3.725 c-6.27,0.043-10.906-3.828-10.906-11.256c0-7.3,4.852-11.125,11.035-11.081c2.834,0,5.539,1.369,6.742,3.473L141.127,22.62z M128.354,33.104c0,4.036,2.746,6.44,6.27,6.44c8.221,0,8.221-12.838,0-12.838C131.1,26.707,128.354,29.068,128.354,33.104z"></path>
<path d="M164.684,43.757V32.374c0-2.791-1.498-5.324-4.375-5.324c-2.834,0-4.549,2.534-4.549,5.324v11.383h-5.166V22.385h4.83 l0.387,2.633c1.117-2.147,3.564-2.892,5.582-2.892c2.533,0,5.066,1.044,6.27,3.964c1.889-3.006,4.33-3.857,7.078-3.857 c6.012,0,8.967,3.7,8.967,10.055v11.468h-5.166V32.289c0-2.792-1.211-5.153-4.045-5.153s-4.645,2.448-4.645,5.238v11.383H164.684z"></path>
<path d="M193.51,35.067c0.344,2.583,2.619,4.472,6.312,4.472c1.932,0,4.465-0.748,5.668-1.993l3.35,3.297 c-2.232,2.318-5.883,3.431-9.104,3.431c-7.301,0-11.637-4.512-11.637-11.296c0-6.44,4.381-11.042,11.25-11.042 c7.086,0,11.508,4.443,10.691,13.132H193.51z M205.018,30.605c-0.344-2.583-2.49-4.122-5.496-4.122 c-2.834,0-5.152,1.539-5.926,4.122H205.018z"></path>
<path d="M218.93,22.62l0.387,2.408c1.631-2.619,3.82-3.025,5.969-3.025c2.189,0,4.293,0.849,5.453,2.008l-2.363,4.546 c-1.072-0.901-2.016-1.376-3.734-1.376c-2.748,0-5.236,1.458-5.236,5.365v11.211h-5.4V22.62H218.93z"></path>
<path d="M238.766,40.938c0,4.228-6.182,4.228-6.182,0C232.584,36.946,238.766,36.946,238.766,40.938z"></path>
</g>
<g>
<g>
<path d="M4.392,51.438c-1.612,0-3.142-0.95-3.794-2.523c-0.862-2.08,0.137-4.461,2.231-5.317L50.766,23.99 c2.094-0.855,4.493,0.136,5.355,2.217c0.862,2.081-0.136,4.462-2.231,5.318L5.953,51.13C5.442,51.338,4.913,51.438,4.392,51.438z"></path>
</g>
<g>
<path d="M4.392,35.906c-1.612,0-3.142-0.949-3.794-2.523c-0.862-2.08,0.137-4.462,2.231-5.318L50.766,8.46 c2.094-0.857,4.493,0.136,5.355,2.216s-0.136,4.461-2.231,5.318L5.953,35.598C5.442,35.808,4.913,35.906,4.392,35.906z"></path>
</g>
<g>
<path d="M4.392,19.866c-1.619,0-3.153-0.958-3.801-2.54c-0.853-2.084,0.156-4.46,2.254-5.308L32.252,0.141 c2.099-0.847,4.491,0.155,5.345,2.24c0.854,2.083-0.156,4.46-2.254,5.308L5.936,19.565C5.43,19.769,4.907,19.866,4.392,19.866z"></path>
</g>
<g>
<path d="M22.85,59.84c-1.621,0-3.154-0.959-3.801-2.541c-0.854-2.083,0.156-4.46,2.254-5.309l29.406-11.876 c2.099-0.847,4.492,0.155,5.345,2.24c0.854,2.083-0.156,4.46-2.254,5.308L24.393,59.538C23.887,59.742,23.364,59.84,22.85,59.84z"></path>
</g>
</g>
</g>
</svg>