<?xml version="1.0" encoding="utf-8"?>
<!-- Generator: Adobe Illustrator 23.0.0, SVG Export Plug-In . SVG Version: 6.00 Build 0)  -->
<svg version="1.1" id="Layer_1" xmlns="http://www.w3.org/2000/svg" xmlns:xlink="http://www.w3.org/1999/xlink" x="0px" y="0px"
	 viewBox="0 0 200 80" style="enable-background:new 0 0 200 80;" xml:space="preserve">
<style type="text/css">
	.st0{fill:#44CE5E;}
	.st1{opacity:0.9;fill:#333333;enable-background:new    ;}
	.st2{opacity:0.1;enable-background:new    ;}
	.st3{enable-background:new    ;}
	.st4{fill:url(#SVGID_1_);}
	.st5{fill:#FFFFFF;}
</style>
<path class="st0" d="M160,80H40C18,80,0,62,0,40v0C0,18,18,0,40,0h120c22,0,40,18,40,40v0C200,62,182,80,160,80z"/>
<g id="booxi">
	<path class="st1" d="M67.4,34H33.5C32,34,32,34,32,32.6s0-1.9,0-2.8c0-2.8-0.1-2.8,3-2.8s3.1,0,3.1,2.7c0,1.3,0,1.3,1.5,1.3
		c1.6,0,17.1,0,21.7,0c1.5,0,1.5,0,1.5-1.3c0-2.7,0-2.7,3.1-2.7c3,0,3,0,3,2.8c0,0.9,0,1.4,0,2.8C69,34,69,34,67.4,34z"/>
	<path class="st1" d="M55,14c3,0,3,0,3,3.1c0,2.1,0,1.4,0,4.7c0,3.1,0,3.1-3,3.1c-3,0-3,0-3-3.1c0-3.3,0-2.7,0-4.7
		C52,14,52,14,55,14z"/>
	<path class="st1" d="M46,14c3,0,3,0,3,3.1c0,2.1,0,1.4,0,4.7c0,3.1,0,3.1-3,3.1c-3,0-3,0-3-3.1c0-3.3,0-2.7,0-4.7
		C43,14,43,14,46,14z"/>
</g>
<g id="booxi_Shade">
	<path class="st2" d="M46,16c-3,0-3,0-3,3.1c0-0.6,0-0.9,0-2c0-3.1,0-3.1,3-3.1s3,0,3,3.1c0,1.1,0,1.4,0,2C49,16,49,16,46,16z"/>
	<path class="st2" d="M55,16c-3,0-3,0-3,3.1c0-0.6,0-0.9,0-2c0-3.1,0-3.1,3-3.1s3,0,3,3.1c0,1.1,0,1.4,0,2C58,16,58,16,55,16z"/>
	<path class="st2" d="M66,29c-2.2,0-2.8,0-3,1.1c0-0.1,0-0.3,0-0.4c0-2.4,0-2.6,2.2-2.7h1.6c2.2,0,2.2,0.3,2.2,2.8c0,1,0,1.8,0,2
		C69,29,68.9,29,66,29z M34.2,27h1.6c2.2,0,2.2,0.3,2.2,2.7c0,0.1,0,0.3,0,0.4c-0.2-1-0.8-1-3-1c-2.9,0-3,0-3,2.3c0-0.4,0-0.9,0-1.5
		c0-0.2,0-0.3,0-0.5C32,27.2,32.1,27,34.2,27z"/>
</g>
<g id="Ticket" class="st3">
	<g id="Gradient">
		<g>
			
				<linearGradient id="SVGID_1_" gradientUnits="userSpaceOnUse" x1="-99.516" y1="-1104.457" x2="-99.516" y2="-1074.88" gradientTransform="matrix(1 0 0 -1 150 -1044)">
				<stop  offset="0.7312" style="stop-color:#FFFFFF"/>
				<stop  offset="0.7663" style="stop-color:#FBFBFB"/>
				<stop  offset="0.8021" style="stop-color:#EFEFEF"/>
				<stop  offset="0.8383" style="stop-color:#DADADA"/>
				<stop  offset="0.8746" style="stop-color:#BEBEBE"/>
				<stop  offset="0.9112" style="stop-color:#999999"/>
				<stop  offset="0.9474" style="stop-color:#6C6C6C"/>
				<stop  offset="0.9785" style="stop-color:#404040"/>
			</linearGradient>
			<path class="st4" d="M65.9,32.6c-1.4-0.7-3.3-1.7-3.3-1.7s0,0.1-0.6,0.1c-0.3,0-22.9,0-23.2,0c-0.3,0-0.4-0.1-0.4-0.1
				s-2.1,1-3.3,1.7C34,33.2,32,34.1,32,38.8c0,4,0,12.9,0,14.1c0,3.1,0,3.1,3.1,3.1c0.4,0,3.1,0,6.7,0c0.4,0.1,0.6,0.3,0.8,0.4
				c1.4,0.8,3,1.8,4.6,2.6c3.4,1.9,3.3,1.9,6.7,0c1.4-0.8,3.2-1.8,4.5-2.6c0.1-0.1,0.5-0.3,0.9-0.4c3.1,0,5.5,0,6.6,0
				c3.1,0,3.1,0,3.1-3.1c0-3.1,0-10.1,0-14.1C69,34.2,67.5,33.4,65.9,32.6z"/>
		</g>
	</g>
</g>
<g id="_x2D_v-">
	<path class="st2" d="M40.5,33.8c1,0,1.4,0.3,1.7,0.5c0.1,0,4.8,3,4.8,3c1.7,1.1,2.6,1.7,3.5,1.7c0.9,0,1.8-0.6,3.5-1.7l4.6-2.9
		c0.3-0.2,0.9-0.6,1.9-0.6h7.2c-0.3-0.4-0.6-0.6-1-0.8h-6.2c-1.2,0-1.9,0.5-2.3,0.7l-4.6,3c-1.6,1-2.4,1.5-3.1,1.5c0,0,0,0,0,0
		c-0.7,0-1.5-0.5-3.2-1.6c0,0-4.7-3-4.8-3c-0.4-0.2-0.9-0.6-2.1-0.6h-6.2c-0.3,0.2-0.6,0.5-1,0.8L40.5,33.8L40.5,33.8z"/>
</g>
<g id="v">
	<path class="st2" d="M53.8,52.1c-0.8,0.4-1.9,1.1-2.6,1.5c-0.4,0.3-0.9,0.3-1.3,0c-0.7-0.4-2.5-1.4-2.6-1.5
		c-1.3-0.7-1.3-0.5-1.3,0.8c0,1.3,0,1.6,0.6,2c0.7,0.4,1.6,0.9,2.5,1.4c1.4,0.8,1.4,0.8,2.9,0c0.9-0.5,2.1-1.2,2.5-1.4
		c0.6-0.3,0.6-0.6,0.6-1.9C55.1,51.6,55.1,51.4,53.8,52.1z M54.2,52.9c0,0.5,0,0.9,0,1.1c0,0,0,0-0.1,0.1c-0.3,0.2-1,0.5-1.6,0.9
		l-0.9,0.5c-0.4,0.2-0.9,0.5-1,0.5c-0.1,0-0.6-0.3-1-0.5c0,0-2.1-1.2-2.5-1.4C46.8,54,46.8,54,46.8,54c0-0.1,0-0.5,0-1
		c0,0,0,0,0-0.1l0.5,0.3c0.6,0.4,1.6,0.9,2.1,1.2c0.4,0.2,0.7,0.3,1.1,0.3c0.4,0,0.7-0.1,1.1-0.3l0.8-0.5
		C53,53.6,53.7,53.2,54.2,52.9C54.2,52.9,54.2,52.9,54.2,52.9z"/>
</g>
<g id="booxi_1_">
	<path class="st5" d="M168,29c0-2,0-2-3-2c-3,0-3,0-3,2s0,2,3,2C168,31,168,31,168,29z M168,52.9c0-2.3,0-13.8,0-16.9
		c0-3.1,0-3.1-3-3.1c-3,0-3,0-3,3c0,3.1,0,14.6,0,16.9c0,3.1,0,3.1,3,3.1C168,56,168,56,168,52.9z"/>
	<path class="st5" d="M159.1,36.1c-1,1.6-2.8,4.6-3.8,6.4c-0.4,0.6-0.8,0.9-1.4,0c-0.6-1-0.8-1.3-1.3-2.2c-0.4-0.6-0.8-1.4-1.3-2.2
		c-0.2-0.4-0.3-0.6,0-1c0.7-1.1,1.3-2,1.5-2.5c0.9-1.5,1-1.5,4.2-1.5C160.1,33,160.9,33.1,159.1,36.1z"/>
	<path class="st5" d="M159.1,52.9c-1-1.6-2.8-4.6-3.8-6.4c-0.4-0.6-0.8-0.9-1.4,0c-0.6,1-0.8,1.3-1.3,2.2c-0.4,0.6-0.8,1.4-1.3,2.2
		c-0.2,0.4-0.3,0.6,0,1c0.7,1.1,1.3,2,1.5,2.5c0.9,1.5,1,1.5,4.2,1.5C160.1,56,160.9,55.9,159.1,52.9z"/>
	<path class="st5" d="M119,46.8v-4.6c0-9.2,0-9.2-9-9.2c-8.9,0-9,0-9,9.2v4.6c0,9.1,0,9.2,9,9.2C119,56,119,56,119,46.8z M113,46.9
		c0,3.1,0,3.2-3,3.2c-3,0-3,0-3-3.2v-4.7c0-3.1,0-3.1,3-3.1c3,0,3,0,3,3.1V46.9z"/>
	<path class="st5" d="M99,46.8c0-1.8,0-4.5,0-4.5c0-9.2,0-9.2-9-9.2c-0.8,0-2.2,0-3,0.2c0,0,0-0.2,0-3.2s0-3.1-3-3.1s-3,0-3,3
		s0,16.8,0,16.8c0,9.2,0,9.2,9,9.2C99,56,99,56,99,46.8z M93,46.8c0,3.1,0,3.2-3,3.2c-3,0-3,0-3-3.2v-4.7c0-3.1,0-3.1,3-3.1
		c3,0,3,0,3,3.1V46.8z"/>
	<path class="st5" d="M141.1,36.2c1,1.7,3.1,5.3,4,6.9c0.6,1,0.6,2,0,3.1c-0.9,1.6-3.8,6.6-4,6.9c-1.7,2.9-0.9,3.1,2.1,3.1
		c3,0,3.1,0,4-1.5c0.9-1.5,2.6-4.4,3.8-6.5c1.9-3.3,1.9-3.5,0-6.9c-1.1-2-3.3-5.5-3.8-6.5c-0.8-1.4-1-1.5-4-1.5
		C140.1,33.1,139.3,33.2,141.1,36.2z"/>
	<path class="st5" d="M139,46.8v-4.6c0-9.2,0-9.2-9-9.2c-8.9,0-9,0-9,9.2v4.6c0,9.1,0,9.2,9,9.2C139,56,139,56,139,46.8z M133,46.9
		c0,3.1,0,3.2-3,3.2c-3,0-3,0-3-3.2v-4.7c0-3.1,0-3.1,3-3.1c3,0,3,0,3,3.1V46.9z"/>
</g>
</svg>
