<svg xmlns="http://www.w3.org/2000/svg" xmlns:xlink="http://www.w3.org/1999/xlink" viewBox="0 0 141 33" class="jfLogo jfLogo-white" aria-hidden="true"><g fill="none" fill-rule="nonzero"><path fill="#000" id="jfLogo-text-black" fill-opacity=".2" d="M92.34 9.364h-8.785L82.3 15.473h8.088l-.883 3.927h-8.086L79.466 29h-4.744L79.79 5H93.27l-.93 4.364zm9.853 10.007c.511-2.45.793-5.41-1.857-5.5-2.42-.094-3.718 1.71-4.463 5.13-.558 2.544-.696 5.458 1.813 5.551 2.416.09 3.765-1.666 4.507-5.181zm-1.672-9.847c6.413 0 7.066 5.363 6.09 9.894-1.022 4.809-3.068 9.478-9.019 9.478-6.412 0-7.11-5.363-6.134-9.943 1.024-4.716 3.114-9.43 9.063-9.43zm17.668 4.483c-3.67.23-4.555 3.012-4.973 5.05L111.126 29h-4.602l3.998-19.2h2.23l.233 2.519c1.206-1.758 2.881-2.97 6.227-2.97l-1.023 4.658zM138.231 29h-4.602l2.51-11.938c.232-1.152.696-3.19-1.068-3.19-1.583 0-2.28 1.53-2.743 3.705L129.911 29h-4.649l2.51-11.938c.279-1.199.7-3.19-1.02-3.19-1.63 0-2.324 1.53-2.789 3.705L121.545 29h-4.603l4-19.2h2.275l.188 2.474c1.207-1.85 3.159-2.786 4.974-2.786 1.672 0 3.204.873 3.62 2.582 1.305-1.85 2.931-2.59 4.792-2.59 4.136 0 4.786 3.749 3.81 8.372L138.232 29zm-93.144-7.058c-.929 4.576-2.322 7.246-10.087 6.69l.885-4.167c3.112.044 4.043-.628 4.463-2.704L43.97 5h4.744l-3.627 16.941zm13.842-2.571c.51-2.45.79-5.41-1.86-5.5-2.42-.094-3.721 1.71-4.462 5.13-.558 2.544-.699 5.458 1.812 5.551 2.418.09 3.764-1.666 4.51-5.181zm-1.676-9.847c6.415 0 7.066 5.363 6.09 9.894-1.024 4.809-3.07 9.478-9.018 9.478-6.416 0-7.11-5.363-6.136-9.943 1.024-4.716 3.115-9.43 9.064-9.43zm18.183 4.64h-3.67l-1.858 8.52c-.42 1.853 0 2.043 3.202 2.09l-.88 4.074c-6.508.277-7.95-1.75-6.924-6.555l1.766-8.13h-2.14l.512-2.758 2.512-1.562L68.975 5h4.603l-1.023 4.8h3.766l-.885 4.364z"></path><path fill="#FFF" id="jfLogo-text" d="M91.34 8.364h-8.785L81.3 14.473h8.088l-.883 3.927h-8.086L78.466 28h-4.744L78.79 4H92.27l-.93 4.364zm9.853 10.007c.511-2.45.793-5.41-1.857-5.5-2.42-.094-3.718 1.71-4.463 5.13-.558 2.544-.696 5.458 1.813 5.551 2.416.09 3.765-1.666 4.507-5.181zm-1.672-9.847c6.413 0 7.066 5.363 6.09 9.894-1.022 4.809-3.068 9.478-9.019 9.478-6.412 0-7.11-5.363-6.134-9.943 1.024-4.716 3.114-9.43 9.063-9.43zm17.668 4.483c-3.67.23-4.555 3.012-4.973 5.05L110.126 28h-4.602l3.998-19.2h2.23l.233 2.519c1.206-1.758 2.881-2.97 6.227-2.97l-1.023 4.658zM137.231 28h-4.602l2.51-11.938c.232-1.152.696-3.19-1.068-3.19-1.583 0-2.28 1.53-2.743 3.705L128.911 28h-4.649l2.51-11.938c.279-1.199.7-3.19-1.02-3.19-1.63 0-2.324 1.53-2.789 3.705L120.545 28h-4.603l4-19.2h2.275l.188 2.474c1.207-1.85 3.159-2.786 4.974-2.786 1.672 0 3.204.873 3.62 2.582 1.305-1.85 2.931-2.59 4.792-2.59 4.136 0 4.786 3.749 3.81 8.372L137.232 28zm-93.144-7.058c-.929 4.576-2.322 7.246-10.087 6.69l.885-4.167c3.112.044 4.043-.628 4.463-2.704L42.97 4h4.744l-3.627 16.941zm13.842-2.571c.51-2.45.79-5.41-1.86-5.5-2.42-.094-3.721 1.71-4.462 5.13-.558 2.544-.699 5.458 1.812 5.551 2.418.09 3.764-1.666 4.51-5.181zm-1.676-9.847c6.415 0 7.066 5.363 6.09 9.894-1.024 4.809-3.07 9.478-9.018 9.478-6.416 0-7.11-5.363-6.136-9.943 1.024-4.716 3.115-9.43 9.064-9.43zm18.183 4.64h-3.67l-1.858 8.52c-.42 1.853 0 2.043 3.202 2.09l-.88 4.074c-6.508.277-7.95-1.75-6.924-6.555l1.766-8.13h-2.14l.512-2.758 2.512-1.562L67.975 4h4.603l-1.023 4.8h3.766l-.885 4.364z"></path><g><circle cx="17" cy="17" r="16" fill="#000" id="jfLogo-circle-black" fill-opacity=".2"></circle><circle cx="16" cy="16" r="16" fill="#FFF" id="jfLogo-circle"></circle><path fill="#F2F2F2" id="jfLogo-pencil-shadow" d="M28.868 18.49l1.998-8.384c-1.448-3.857-4.443-6.808-8.241-8.598l-2.899 15.634L8.923 25.91l19.945-7.422z"></path><path fill="#4E4E4E" d="M11.902 20.997l-2.976 4.914.354-5.766.874.033 1.061.296z"></path><path fill="#686868" d="M8.926 25.834l4.206-19.576-2.96-.418z"></path><path fill="#404040" d="M21.138.898A15.754 15.754 0 0018.32.182L16.185 7.31l-7.262 18.6 2.972-4.923 7.04-12.308L21.138.898z"></path><path fill="#D6AB96" d="M11.215 20.474l-1.061-.296-.874-.033.892-14.305L11 3l10-2-2.058 7.689-7.04 12.308z"></path><path fill="#B28F7E" d="M16.185 7.308L17 4.5l1.932 4.185-7.039 12.306-.678-.517-.153-.043z"></path><path fill="#EDCEBD" d="M10.172 5.84L14.5 1.5l-1.368 4.758-2.991 13.92-.86-.034z"></path><path fill="#F38632" d="M15.874 0c-1.446 0-2.885.198-4.277.588L10.175 5.84l2.96.418 3.053 1.05 2.769 1.381L21.154.9A15.838 15.838 0 0015.874 0z"></path><path fill="#C86E29" d="M16.186 7.308L18.32.187c.516.08 1.027.185 1.533.315.29.076.577.16.861.252l.425.144-2.203 7.78-2.749-1.37L18.32.187l-2.133 7.12z"></path><path fill="#F6A259" d="M11.594.59l-1.422 5.253 2.96.419 1.8-6.231a15.83 15.83 0 00-3.338.56z"></path></g></g></svg>