<svg width="1107" height="847" viewBox="155 925 637 50" fill="none" xmlns="http://www.w3.org/2000/svg">
<path d="M223.404 707C229.916 714.976 237.098 722.383 244.865 729.135C239.69 745.92 236.903 763.754 236.903 782.238C236.903 800.722 239.69 818.556 244.865 835.342C237.098 842.094 229.916 849.501 223.404 857.476C216.891 849.501 209.709 842.094 201.942 835.342C207.117 818.556 209.903 800.722 209.903 782.238C209.903 763.754 207.117 745.92 201.942 729.135C209.709 722.383 216.891 714.976 223.404 707Z" fill="black"/>
<path d="M187.096 823.736C178.875 817.974 170.15 812.881 161 808.538C163.538 800.219 164.903 791.388 164.903 782.238C164.903 773.088 163.538 764.258 161 755.938C170.15 751.595 178.875 746.502 187.096 740.74C190.24 754.062 191.903 767.956 191.903 782.238C191.903 796.52 190.24 810.414 187.096 823.736Z" fill="black"/>
<path d="M254.903 782.238C254.903 796.52 256.567 810.414 259.711 823.736C267.932 817.974 276.657 812.881 285.807 808.538C283.269 800.219 281.904 791.388 281.904 782.238C281.904 773.088 283.269 764.258 285.807 755.938C276.657 751.595 267.932 746.502 259.711 740.74C256.567 754.062 254.903 767.956 254.903 782.238Z" fill="black"/>
<path d="M382.987 809.637H395.828V749.74H377.868L363.321 787.097L348.773 749.74H330.903V809.637H343.654V766.533L360.537 809.637H366.104L382.987 766.533V809.637Z" fill="black"/>
<path d="M433.497 809.637H444.902V781.62C444.902 769.137 435.832 765.186 425.954 765.186C419.129 765.186 412.304 767.341 407.006 772.011L411.316 779.644C414.998 776.232 419.308 774.525 423.978 774.525C429.725 774.525 433.497 777.399 433.497 781.799V787.816C430.623 784.314 425.505 782.518 419.757 782.518C412.843 782.518 404.671 786.199 404.671 796.347C404.671 806.045 412.843 810.715 419.757 810.715C425.415 810.715 430.534 808.649 433.497 805.147V809.637ZM433.497 799.22C431.611 801.735 428.019 802.992 424.337 802.992C419.847 802.992 416.165 800.657 416.165 796.616C416.165 792.485 419.847 790.061 424.337 790.061C428.019 790.061 431.611 791.318 433.497 793.832V799.22Z" fill="black"/>
<path d="M455.316 820.773C460.704 825.532 466.541 827.238 473.994 827.238C484.68 827.238 497.432 823.197 497.432 806.674V766.264H485.938V771.831C482.435 767.431 477.766 765.186 472.557 765.186C461.602 765.186 453.43 773.088 453.43 787.277C453.43 801.735 461.691 809.368 472.557 809.368C477.856 809.368 482.525 806.853 485.938 802.543V806.943C485.938 815.474 479.472 817.899 473.994 817.899C468.516 817.899 463.936 816.372 460.434 812.511L455.316 820.773ZM485.938 794.281C484.052 797.065 479.921 799.22 476.149 799.22C469.684 799.22 465.194 794.73 465.194 787.277C465.194 779.824 469.684 775.334 476.149 775.334C479.921 775.334 484.052 777.399 485.938 780.273V794.281Z" fill="black"/>
<path d="M514.401 759.888C518.172 759.888 521.226 756.835 521.226 753.063C521.226 749.291 518.172 746.238 514.401 746.238C510.719 746.238 507.576 749.291 507.576 753.063C507.576 756.835 510.719 759.888 514.401 759.888ZM508.743 809.637H520.148V766.264H508.743V809.637Z" fill="black"/>
<path d="M528.673 787.906C528.673 801.286 538.281 810.715 551.662 810.715C560.552 810.715 565.94 806.853 568.814 802.812L561.36 795.898C559.295 798.771 556.152 800.567 552.2 800.567C545.286 800.567 540.437 795.449 540.437 787.906C540.437 780.362 545.286 775.334 552.2 775.334C556.152 775.334 559.295 777.04 561.36 780.003L568.814 773.088C565.94 769.047 560.552 765.186 551.662 765.186C538.281 765.186 528.673 774.615 528.673 787.906Z" fill="black"/>
</svg>
