<svg width="1107" height="947" viewBox="0 0 1107 947" fill="none" xmlns="http://www.w3.org/2000/svg">
<g filter="url(#filter0_d)">
<rect x="30" y="648" width="669" height="269" rx="40" fill="white"/>
</g>
<path d="M223.404 707C229.916 714.976 237.098 722.383 244.865 729.135C239.69 745.92 236.903 763.754 236.903 782.238C236.903 800.722 239.69 818.556 244.865 835.342C237.098 842.094 229.916 849.501 223.404 857.476C216.891 849.501 209.709 842.094 201.942 835.342C207.117 818.556 209.903 800.722 209.903 782.238C209.903 763.754 207.117 745.92 201.942 729.135C209.709 722.383 216.891 714.976 223.404 707Z" fill="black"/>
<path d="M187.096 823.736C178.875 817.974 170.15 812.881 161 808.538C163.538 800.219 164.903 791.388 164.903 782.238C164.903 773.088 163.538 764.258 161 755.938C170.15 751.595 178.875 746.502 187.096 740.74C190.24 754.062 191.903 767.956 191.903 782.238C191.903 796.52 190.24 810.414 187.096 823.736Z" fill="black"/>
<path d="M254.903 782.238C254.903 796.52 256.567 810.414 259.711 823.736C267.932 817.974 276.657 812.881 285.807 808.538C283.269 800.219 281.904 791.388 281.904 782.238C281.904 773.088 283.269 764.258 285.807 755.938C276.657 751.595 267.932 746.502 259.711 740.74C256.567 754.062 254.903 767.956 254.903 782.238Z" fill="black"/>
<path d="M382.987 809.637H395.828V749.74H377.868L363.321 787.097L348.773 749.74H330.903V809.637H343.654V766.533L360.537 809.637H366.104L382.987 766.533V809.637Z" fill="black"/>
<path d="M433.497 809.637H444.902V781.62C444.902 769.137 435.832 765.186 425.954 765.186C419.129 765.186 412.304 767.341 407.006 772.011L411.316 779.644C414.998 776.232 419.308 774.525 423.978 774.525C429.725 774.525 433.497 777.399 433.497 781.799V787.816C430.623 784.314 425.505 782.518 419.757 782.518C412.843 782.518 404.671 786.199 404.671 796.347C404.671 806.045 412.843 810.715 419.757 810.715C425.415 810.715 430.534 808.649 433.497 805.147V809.637ZM433.497 799.22C431.611 801.735 428.019 802.992 424.337 802.992C419.847 802.992 416.165 800.657 416.165 796.616C416.165 792.485 419.847 790.061 424.337 790.061C428.019 790.061 431.611 791.318 433.497 793.832V799.22Z" fill="black"/>
<path d="M455.316 820.773C460.704 825.532 466.541 827.238 473.994 827.238C484.68 827.238 497.432 823.197 497.432 806.674V766.264H485.938V771.831C482.435 767.431 477.766 765.186 472.557 765.186C461.602 765.186 453.43 773.088 453.43 787.277C453.43 801.735 461.691 809.368 472.557 809.368C477.856 809.368 482.525 806.853 485.938 802.543V806.943C485.938 815.474 479.472 817.899 473.994 817.899C468.516 817.899 463.936 816.372 460.434 812.511L455.316 820.773ZM485.938 794.281C484.052 797.065 479.921 799.22 476.149 799.22C469.684 799.22 465.194 794.73 465.194 787.277C465.194 779.824 469.684 775.334 476.149 775.334C479.921 775.334 484.052 777.399 485.938 780.273V794.281Z" fill="black"/>
<path d="M514.401 759.888C518.172 759.888 521.226 756.835 521.226 753.063C521.226 749.291 518.172 746.238 514.401 746.238C510.719 746.238 507.576 749.291 507.576 753.063C507.576 756.835 510.719 759.888 514.401 759.888ZM508.743 809.637H520.148V766.264H508.743V809.637Z" fill="black"/>
<path d="M528.673 787.906C528.673 801.286 538.281 810.715 551.662 810.715C560.552 810.715 565.94 806.853 568.814 802.812L561.36 795.898C559.295 798.771 556.152 800.567 552.2 800.567C545.286 800.567 540.437 795.449 540.437 787.906C540.437 780.362 545.286 775.334 552.2 775.334C556.152 775.334 559.295 777.04 561.36 780.003L568.814 773.088C565.94 769.047 560.552 765.186 551.662 765.186C538.281 765.186 528.673 774.615 528.673 787.906Z" fill="black"/>
<g filter="url(#filter1_d)">
<rect x="30" y="339" width="669" height="269" rx="40" fill="black"/>
</g>
<path d="M223.404 398C229.916 405.976 237.098 413.383 244.865 420.135C239.69 436.92 236.903 454.754 236.903 473.238C236.903 491.722 239.69 509.556 244.865 526.342C237.098 533.094 229.916 540.501 223.404 548.476C216.891 540.501 209.709 533.094 201.942 526.342C207.117 509.556 209.903 491.722 209.903 473.238C209.903 454.754 207.117 436.92 201.942 420.135C209.709 413.383 216.891 405.976 223.404 398Z" fill="#6851FF"/>
<path d="M187.096 514.736C178.875 508.974 170.15 503.881 161 499.538C163.538 491.219 164.903 482.388 164.903 473.238C164.903 464.088 163.538 455.258 161 446.938C170.15 442.595 178.875 437.502 187.096 431.74C190.24 445.062 191.903 458.956 191.903 473.238C191.903 487.52 190.24 501.414 187.096 514.736Z" fill="#6851FF"/>
<path d="M254.903 473.238C254.903 487.52 256.567 501.414 259.711 514.736C267.932 508.974 276.657 503.881 285.807 499.538C283.269 491.219 281.904 482.388 281.904 473.238C281.904 464.088 283.269 455.258 285.807 446.938C276.657 442.595 267.932 437.502 259.711 431.74C256.567 445.062 254.903 458.956 254.903 473.238Z" fill="#6851FF"/>
<path d="M382.987 500.637H395.828V440.74H377.868L363.321 478.097L348.773 440.74H330.903V500.637H343.654V457.533L360.537 500.637H366.104L382.987 457.533V500.637Z" fill="white"/>
<path d="M433.497 500.637H444.902V472.62C444.902 460.137 435.832 456.186 425.954 456.186C419.129 456.186 412.304 458.341 407.006 463.011L411.316 470.644C414.998 467.232 419.308 465.525 423.978 465.525C429.725 465.525 433.497 468.399 433.497 472.799V478.816C430.623 475.314 425.505 473.518 419.757 473.518C412.843 473.518 404.671 477.199 404.671 487.347C404.671 497.045 412.843 501.715 419.757 501.715C425.415 501.715 430.534 499.649 433.497 496.147V500.637ZM433.497 490.22C431.611 492.735 428.019 493.992 424.337 493.992C419.847 493.992 416.165 491.657 416.165 487.616C416.165 483.485 419.847 481.061 424.337 481.061C428.019 481.061 431.611 482.318 433.497 484.832V490.22Z" fill="white"/>
<path d="M455.316 511.773C460.704 516.532 466.541 518.238 473.994 518.238C484.68 518.238 497.432 514.197 497.432 497.674V457.264H485.938V462.831C482.435 458.431 477.766 456.186 472.557 456.186C461.602 456.186 453.43 464.088 453.43 478.277C453.43 492.735 461.691 500.368 472.557 500.368C477.856 500.368 482.525 497.853 485.938 493.543V497.943C485.938 506.474 479.472 508.899 473.994 508.899C468.516 508.899 463.936 507.372 460.434 503.511L455.316 511.773ZM485.938 485.281C484.052 488.065 479.921 490.22 476.149 490.22C469.684 490.22 465.194 485.73 465.194 478.277C465.194 470.824 469.684 466.334 476.149 466.334C479.921 466.334 484.052 468.399 485.938 471.273V485.281Z" fill="white"/>
<path d="M514.401 450.888C518.172 450.888 521.226 447.835 521.226 444.063C521.226 440.291 518.172 437.238 514.401 437.238C510.719 437.238 507.576 440.291 507.576 444.063C507.576 447.835 510.719 450.888 514.401 450.888ZM508.743 500.637H520.148V457.264H508.743V500.637Z" fill="white"/>
<path d="M528.673 478.906C528.673 492.286 538.281 501.715 551.662 501.715C560.552 501.715 565.94 497.853 568.814 493.812L561.36 486.898C559.295 489.771 556.152 491.567 552.2 491.567C545.286 491.567 540.437 486.449 540.437 478.906C540.437 471.362 545.286 466.334 552.2 466.334C556.152 466.334 559.295 468.04 561.36 471.003L568.814 464.088C565.94 460.047 560.552 456.186 551.662 456.186C538.281 456.186 528.673 465.615 528.673 478.906Z" fill="white"/>
<g filter="url(#filter2_d)">
<rect x="30" y="30" width="669" height="269" rx="40" fill="white"/>
</g>
<path d="M223.404 89C229.916 96.9758 237.098 104.383 244.865 111.135C239.69 127.92 236.903 145.754 236.903 164.238C236.903 182.722 239.69 200.556 244.865 217.342C237.098 224.094 229.916 231.501 223.404 239.476C216.891 231.501 209.709 224.094 201.942 217.342C207.117 200.556 209.903 182.722 209.903 164.238C209.903 145.754 207.117 127.92 201.942 111.135C209.709 104.383 216.891 96.9758 223.404 89Z" fill="#6851FF"/>
<path d="M187.096 205.736C178.875 199.974 170.15 194.881 161 190.538C163.538 182.219 164.903 173.388 164.903 164.238C164.903 155.088 163.538 146.258 161 137.938C170.15 133.595 178.875 128.502 187.096 122.74C190.24 136.062 191.903 149.956 191.903 164.238C191.903 178.52 190.24 192.414 187.096 205.736Z" fill="#6851FF"/>
<path d="M254.903 164.238C254.903 178.52 256.567 192.414 259.711 205.736C267.932 199.974 276.657 194.881 285.807 190.538C283.269 182.219 281.904 173.388 281.904 164.238C281.904 155.088 283.269 146.258 285.807 137.938C276.657 133.595 267.932 128.502 259.711 122.74C256.567 136.062 254.903 149.956 254.903 164.238Z" fill="#6851FF"/>
<path d="M382.987 191.637H395.828V131.74H377.868L363.321 169.097L348.773 131.74H330.903V191.637H343.654V148.533L360.537 191.637H366.104L382.987 148.533V191.637Z" fill="black"/>
<path d="M433.497 191.637H444.902V163.619C444.902 151.137 435.832 147.186 425.954 147.186C419.129 147.186 412.304 149.341 407.006 154.011L411.316 161.644C414.998 158.231 419.308 156.525 423.978 156.525C429.725 156.525 433.497 159.399 433.497 163.799V169.816C430.623 166.313 425.505 164.517 419.757 164.517C412.843 164.517 404.671 168.199 404.671 178.347C404.671 188.045 412.843 192.715 419.757 192.715C425.415 192.715 430.534 190.649 433.497 187.147V191.637ZM433.497 181.22C431.611 183.735 428.019 184.992 424.337 184.992C419.847 184.992 416.165 182.657 416.165 178.616C416.165 174.485 419.847 172.061 424.337 172.061C428.019 172.061 431.611 173.318 433.497 175.832V181.22Z" fill="black"/>
<path d="M455.316 202.772C460.704 207.532 466.541 209.238 473.994 209.238C484.68 209.238 497.432 205.197 497.432 188.674V148.264H485.938V153.831C482.435 149.431 477.766 147.186 472.557 147.186C461.602 147.186 453.43 155.088 453.43 169.277C453.43 183.735 461.691 191.368 472.557 191.368C477.856 191.368 482.525 188.853 485.938 184.543V188.943C485.938 197.474 479.472 199.899 473.994 199.899C468.516 199.899 463.936 198.372 460.434 194.511L455.316 202.772ZM485.938 176.281C484.052 179.065 479.921 181.22 476.149 181.22C469.684 181.22 465.194 176.73 465.194 169.277C465.194 161.823 469.684 157.333 476.149 157.333C479.921 157.333 484.052 159.399 485.938 162.272V176.281Z" fill="black"/>
<path d="M514.401 141.888C518.172 141.888 521.226 138.834 521.226 135.063C521.226 131.291 518.172 128.238 514.401 128.238C510.719 128.238 507.576 131.291 507.576 135.063C507.576 138.834 510.719 141.888 514.401 141.888ZM508.743 191.637H520.148V148.264H508.743V191.637Z" fill="black"/>
<path d="M528.673 169.905C528.673 183.286 538.281 192.715 551.662 192.715C560.552 192.715 565.94 188.853 568.814 184.812L561.36 177.898C559.295 180.771 556.152 182.567 552.2 182.567C545.286 182.567 540.437 177.449 540.437 169.905C540.437 162.362 545.286 157.333 552.2 157.333C556.152 157.333 559.295 159.04 561.36 162.003L568.814 155.088C565.94 151.047 560.552 147.186 551.662 147.186C538.281 147.186 528.673 156.615 528.673 169.905Z" fill="black"/>
<g filter="url(#filter3_d)">
<rect x="729" y="30" width="348" height="269" rx="40" fill="white"/>
</g>
<path d="M902.604 73C907.563 79.0736 913.033 84.714 918.947 89.8557C915.006 102.638 912.885 116.218 912.885 130.294C912.885 144.37 915.006 157.951 918.947 170.733C913.033 175.875 907.563 181.515 902.604 187.589C897.645 181.515 892.176 175.875 886.261 170.733C890.202 157.95 892.324 144.37 892.324 130.294C892.324 116.218 890.202 102.638 886.261 89.8558C892.176 84.714 897.645 79.0736 902.604 73Z" fill="#6851FF"/>
<path d="M874.956 161.895C868.696 157.507 862.051 153.629 855.084 150.322C857.017 143.987 858.056 137.262 858.056 130.294C858.056 123.327 857.017 116.602 855.084 110.267C862.051 106.959 868.696 103.081 874.956 98.6932C877.35 108.838 878.617 119.418 878.617 130.294C878.617 141.17 877.35 151.751 874.956 161.895Z" fill="#6851FF"/>
<path d="M926.592 130.294C926.592 141.17 927.859 151.751 930.252 161.895C936.513 157.507 943.157 153.629 950.125 150.322C948.192 143.987 947.153 137.262 947.153 130.294C947.153 123.327 948.192 116.602 950.125 110.267C943.157 106.959 936.513 103.081 930.252 98.6932C927.859 108.838 926.592 119.418 926.592 130.294Z" fill="#6851FF"/>
<path d="M863.849 244.575H871.454V209.099H860.817L852.201 231.225L843.584 209.099H833V244.575H840.553V219.045L850.552 244.575H853.849L863.849 219.045V244.575Z" fill="black"/>
<path d="M893.765 244.575H900.52V227.981C900.52 220.588 895.148 218.248 889.297 218.248C885.255 218.248 881.213 219.524 878.075 222.29L880.628 226.811C882.808 224.79 885.361 223.779 888.127 223.779C891.531 223.779 893.765 225.481 893.765 228.087V231.651C892.063 229.577 889.031 228.513 885.627 228.513C881.532 228.513 876.692 230.693 876.692 236.704C876.692 242.448 881.532 245.214 885.627 245.214C888.978 245.214 892.01 243.99 893.765 241.916V244.575ZM893.765 238.406C892.648 239.895 890.52 240.639 888.34 240.639C885.68 240.639 883.5 239.257 883.5 236.863C883.5 234.417 885.68 232.981 888.34 232.981C890.52 232.981 892.648 233.725 893.765 235.214V238.406Z" fill="black"/>
<path d="M906.688 251.171C909.879 253.989 913.336 255 917.751 255C924.08 255 931.632 252.607 931.632 242.82V218.886H924.824V222.184C922.75 219.577 919.984 218.248 916.9 218.248C910.411 218.248 905.571 222.928 905.571 231.332C905.571 239.895 910.464 244.416 916.9 244.416C920.038 244.416 922.803 242.927 924.824 240.374V242.98C924.824 248.033 920.995 249.469 917.751 249.469C914.506 249.469 911.794 248.564 909.719 246.277L906.688 251.171ZM924.824 235.48C923.708 237.129 921.261 238.406 919.027 238.406C915.198 238.406 912.538 235.746 912.538 231.332C912.538 226.917 915.198 224.258 919.027 224.258C921.261 224.258 923.708 225.481 924.824 227.183V235.48Z" fill="black"/>
<path d="M941.683 215.11C943.917 215.11 945.725 213.301 945.725 211.067C945.725 208.834 943.917 207.025 941.683 207.025C939.502 207.025 937.641 208.834 937.641 211.067C937.641 213.301 939.502 215.11 941.683 215.11ZM938.332 244.575H945.087V218.886H938.332V244.575Z" fill="black"/>
<path d="M950.136 231.704C950.136 239.629 955.827 245.214 963.752 245.214C969.017 245.214 972.208 242.927 973.91 240.533L969.496 236.438C968.273 238.14 966.411 239.203 964.071 239.203C959.975 239.203 957.103 236.172 957.103 231.704C957.103 227.236 959.975 224.258 964.071 224.258C966.411 224.258 968.273 225.268 969.496 227.024L973.91 222.928C972.208 220.535 969.017 218.248 963.752 218.248C955.827 218.248 950.136 223.832 950.136 231.704Z" fill="black"/>
<g filter="url(#filter4_d)">
<rect x="729" y="648" width="348" height="269" rx="40" fill="white"/>
</g>
<path d="M902.604 691C907.563 697.074 913.033 702.714 918.947 707.856C915.006 720.638 912.885 734.218 912.885 748.294C912.885 762.37 915.006 775.951 918.947 788.733C913.033 793.875 907.563 799.515 902.604 805.589C897.645 799.515 892.176 793.875 886.261 788.733C890.202 775.95 892.324 762.37 892.324 748.294C892.324 734.218 890.202 720.638 886.261 707.856C892.176 702.714 897.645 697.074 902.604 691Z" fill="black"/>
<path d="M874.956 779.895C868.696 775.507 862.051 771.629 855.084 768.322C857.017 761.987 858.056 755.262 858.056 748.294C858.056 741.327 857.017 734.602 855.084 728.267C862.051 724.959 868.696 721.081 874.956 716.693C877.35 726.838 878.617 737.418 878.617 748.294C878.617 759.17 877.35 769.751 874.956 779.895Z" fill="black"/>
<path d="M926.592 748.294C926.592 759.17 927.859 769.751 930.252 779.895C936.513 775.507 943.157 771.629 950.125 768.322C948.192 761.987 947.153 755.262 947.153 748.294C947.153 741.327 948.192 734.602 950.125 728.267C943.157 724.959 936.513 721.081 930.252 716.693C927.859 726.838 926.592 737.418 926.592 748.294Z" fill="black"/>
<path d="M863.849 862.575H871.454V827.099H860.817L852.201 849.225L843.584 827.099H833V862.575H840.553V837.045L850.552 862.575H853.849L863.849 837.045V862.575Z" fill="black"/>
<path d="M893.765 862.575H900.52V845.981C900.52 838.588 895.148 836.248 889.297 836.248C885.255 836.248 881.213 837.524 878.075 840.29L880.628 844.811C882.808 842.79 885.361 841.779 888.127 841.779C891.531 841.779 893.765 843.481 893.765 846.087V849.651C892.063 847.577 889.031 846.513 885.627 846.513C881.532 846.513 876.692 848.693 876.692 854.704C876.692 860.448 881.532 863.214 885.627 863.214C888.978 863.214 892.01 861.99 893.765 859.916V862.575ZM893.765 856.406C892.648 857.895 890.52 858.639 888.34 858.639C885.68 858.639 883.5 857.257 883.5 854.863C883.5 852.417 885.68 850.981 888.34 850.981C890.52 850.981 892.648 851.725 893.765 853.214V856.406Z" fill="black"/>
<path d="M906.688 869.171C909.879 871.989 913.336 873 917.751 873C924.08 873 931.632 870.607 931.632 860.82V836.886H924.824V840.184C922.75 837.577 919.984 836.248 916.9 836.248C910.411 836.248 905.571 840.928 905.571 849.332C905.571 857.895 910.464 862.416 916.9 862.416C920.038 862.416 922.803 860.927 924.824 858.374V860.98C924.824 866.033 920.995 867.469 917.751 867.469C914.506 867.469 911.794 866.564 909.719 864.277L906.688 869.171ZM924.824 853.48C923.708 855.129 921.261 856.406 919.027 856.406C915.198 856.406 912.538 853.746 912.538 849.332C912.538 844.917 915.198 842.258 919.027 842.258C921.261 842.258 923.708 843.481 924.824 845.183V853.48Z" fill="black"/>
<path d="M941.683 833.11C943.917 833.11 945.725 831.301 945.725 829.067C945.725 826.834 943.917 825.025 941.683 825.025C939.502 825.025 937.641 826.834 937.641 829.067C937.641 831.301 939.502 833.11 941.683 833.11ZM938.332 862.575H945.087V836.886H938.332V862.575Z" fill="black"/>
<path d="M950.136 849.704C950.136 857.629 955.827 863.214 963.752 863.214C969.017 863.214 972.208 860.927 973.91 858.533L969.496 854.438C968.273 856.14 966.411 857.203 964.071 857.203C959.975 857.203 957.103 854.172 957.103 849.704C957.103 845.236 959.975 842.258 964.071 842.258C966.411 842.258 968.273 843.268 969.496 845.024L973.91 840.928C972.208 838.535 969.017 836.248 963.752 836.248C955.827 836.248 950.136 841.832 950.136 849.704Z" fill="black"/>
<g filter="url(#filter5_d)">
<rect x="729" y="339" width="348" height="269" rx="40" fill="black"/>
</g>
<path d="M902.604 382C907.563 388.074 913.033 393.714 918.947 398.856C915.006 411.638 912.885 425.218 912.885 439.294C912.885 453.37 915.006 466.951 918.947 479.733C913.033 484.875 907.563 490.515 902.604 496.589C897.645 490.515 892.176 484.875 886.261 479.733C890.202 466.95 892.324 453.37 892.324 439.294C892.324 425.218 890.202 411.638 886.261 398.856C892.176 393.714 897.645 388.074 902.604 382Z" fill="#6851FF"/>
<path d="M874.956 470.895C868.696 466.507 862.051 462.629 855.084 459.322C857.017 452.987 858.056 446.262 858.056 439.294C858.056 432.327 857.017 425.602 855.084 419.267C862.051 415.959 868.696 412.081 874.956 407.693C877.35 417.838 878.617 428.418 878.617 439.294C878.617 450.17 877.35 460.751 874.956 470.895Z" fill="#6851FF"/>
<path d="M926.592 439.294C926.592 450.17 927.859 460.751 930.252 470.895C936.513 466.507 943.157 462.629 950.125 459.322C948.192 452.987 947.153 446.262 947.153 439.294C947.153 432.327 948.192 425.602 950.125 419.267C943.157 415.959 936.513 412.081 930.252 407.693C927.859 417.838 926.592 428.418 926.592 439.294Z" fill="#6851FF"/>
<path d="M863.849 553.575H871.454V518.099H860.817L852.201 540.225L843.584 518.099H833V553.575H840.553V528.045L850.552 553.575H853.849L863.849 528.045V553.575Z" fill="white"/>
<path d="M893.765 553.575H900.52V536.981C900.52 529.588 895.148 527.248 889.297 527.248C885.255 527.248 881.213 528.524 878.075 531.29L880.628 535.811C882.808 533.79 885.361 532.779 888.127 532.779C891.531 532.779 893.765 534.481 893.765 537.087V540.651C892.063 538.577 889.031 537.513 885.627 537.513C881.532 537.513 876.692 539.693 876.692 545.704C876.692 551.448 881.532 554.214 885.627 554.214C888.978 554.214 892.01 552.99 893.765 550.916V553.575ZM893.765 547.406C892.648 548.895 890.52 549.639 888.34 549.639C885.68 549.639 883.5 548.257 883.5 545.863C883.5 543.417 885.68 541.981 888.34 541.981C890.52 541.981 892.648 542.725 893.765 544.214V547.406Z" fill="white"/>
<path d="M906.688 560.171C909.879 562.989 913.336 564 917.751 564C924.08 564 931.632 561.607 931.632 551.82V527.886H924.824V531.184C922.75 528.577 919.984 527.248 916.9 527.248C910.411 527.248 905.571 531.928 905.571 540.332C905.571 548.895 910.464 553.416 916.9 553.416C920.038 553.416 922.803 551.927 924.824 549.374V551.98C924.824 557.033 920.995 558.469 917.751 558.469C914.506 558.469 911.794 557.564 909.719 555.277L906.688 560.171ZM924.824 544.48C923.708 546.129 921.261 547.406 919.027 547.406C915.198 547.406 912.538 544.746 912.538 540.332C912.538 535.917 915.198 533.258 919.027 533.258C921.261 533.258 923.708 534.481 924.824 536.183V544.48Z" fill="white"/>
<path d="M941.683 524.11C943.917 524.11 945.725 522.301 945.725 520.067C945.725 517.834 943.917 516.025 941.683 516.025C939.502 516.025 937.641 517.834 937.641 520.067C937.641 522.301 939.502 524.11 941.683 524.11ZM938.332 553.575H945.087V527.886H938.332V553.575Z" fill="white"/>
<path d="M950.136 540.704C950.136 548.629 955.827 554.214 963.752 554.214C969.017 554.214 972.208 551.927 973.91 549.533L969.496 545.438C968.273 547.14 966.411 548.203 964.071 548.203C959.975 548.203 957.103 545.172 957.103 540.704C957.103 536.236 959.975 533.258 964.071 533.258C966.411 533.258 968.273 534.268 969.496 536.024L973.91 531.928C972.208 529.535 969.017 527.248 963.752 527.248C955.827 527.248 950.136 532.832 950.136 540.704Z" fill="white"/>
<defs>
<filter id="filter0_d" x="0" y="618" width="729" height="329" filterUnits="userSpaceOnUse" color-interpolation-filters="sRGB">
<feFlood flood-opacity="0" result="BackgroundImageFix"/>
<feColorMatrix in="SourceAlpha" type="matrix" values="0 0 0 0 0 0 0 0 0 0 0 0 0 0 0 0 0 0 127 0"/>
<feOffset/>
<feGaussianBlur stdDeviation="15"/>
<feColorMatrix type="matrix" values="0 0 0 0 0 0 0 0 0 0 0 0 0 0 0 0 0 0 0.18 0"/>
<feBlend mode="normal" in2="BackgroundImageFix" result="effect1_dropShadow"/>
<feBlend mode="normal" in="SourceGraphic" in2="effect1_dropShadow" result="shape"/>
</filter>
<filter id="filter1_d" x="0" y="309" width="729" height="329" filterUnits="userSpaceOnUse" color-interpolation-filters="sRGB">
<feFlood flood-opacity="0" result="BackgroundImageFix"/>
<feColorMatrix in="SourceAlpha" type="matrix" values="0 0 0 0 0 0 0 0 0 0 0 0 0 0 0 0 0 0 127 0"/>
<feOffset/>
<feGaussianBlur stdDeviation="15"/>
<feColorMatrix type="matrix" values="0 0 0 0 0 0 0 0 0 0 0 0 0 0 0 0 0 0 0.18 0"/>
<feBlend mode="normal" in2="BackgroundImageFix" result="effect1_dropShadow"/>
<feBlend mode="normal" in="SourceGraphic" in2="effect1_dropShadow" result="shape"/>
</filter>
<filter id="filter2_d" x="0" y="0" width="729" height="329" filterUnits="userSpaceOnUse" color-interpolation-filters="sRGB">
<feFlood flood-opacity="0" result="BackgroundImageFix"/>
<feColorMatrix in="SourceAlpha" type="matrix" values="0 0 0 0 0 0 0 0 0 0 0 0 0 0 0 0 0 0 127 0"/>
<feOffset/>
<feGaussianBlur stdDeviation="15"/>
<feColorMatrix type="matrix" values="0 0 0 0 0 0 0 0 0 0 0 0 0 0 0 0 0 0 0.18 0"/>
<feBlend mode="normal" in2="BackgroundImageFix" result="effect1_dropShadow"/>
<feBlend mode="normal" in="SourceGraphic" in2="effect1_dropShadow" result="shape"/>
</filter>
<filter id="filter3_d" x="699" y="0" width="408" height="329" filterUnits="userSpaceOnUse" color-interpolation-filters="sRGB">
<feFlood flood-opacity="0" result="BackgroundImageFix"/>
<feColorMatrix in="SourceAlpha" type="matrix" values="0 0 0 0 0 0 0 0 0 0 0 0 0 0 0 0 0 0 127 0"/>
<feOffset/>
<feGaussianBlur stdDeviation="15"/>
<feColorMatrix type="matrix" values="0 0 0 0 0 0 0 0 0 0 0 0 0 0 0 0 0 0 0.18 0"/>
<feBlend mode="normal" in2="BackgroundImageFix" result="effect1_dropShadow"/>
<feBlend mode="normal" in="SourceGraphic" in2="effect1_dropShadow" result="shape"/>
</filter>
<filter id="filter4_d" x="699" y="618" width="408" height="329" filterUnits="userSpaceOnUse" color-interpolation-filters="sRGB">
<feFlood flood-opacity="0" result="BackgroundImageFix"/>
<feColorMatrix in="SourceAlpha" type="matrix" values="0 0 0 0 0 0 0 0 0 0 0 0 0 0 0 0 0 0 127 0"/>
<feOffset/>
<feGaussianBlur stdDeviation="15"/>
<feColorMatrix type="matrix" values="0 0 0 0 0 0 0 0 0 0 0 0 0 0 0 0 0 0 0.18 0"/>
<feBlend mode="normal" in2="BackgroundImageFix" result="effect1_dropShadow"/>
<feBlend mode="normal" in="SourceGraphic" in2="effect1_dropShadow" result="shape"/>
</filter>
<filter id="filter5_d" x="699" y="309" width="408" height="329" filterUnits="userSpaceOnUse" color-interpolation-filters="sRGB">
<feFlood flood-opacity="0" result="BackgroundImageFix"/>
<feColorMatrix in="SourceAlpha" type="matrix" values="0 0 0 0 0 0 0 0 0 0 0 0 0 0 0 0 0 0 127 0"/>
<feOffset/>
<feGaussianBlur stdDeviation="15"/>
<feColorMatrix type="matrix" values="0 0 0 0 0 0 0 0 0 0 0 0 0 0 0 0 0 0 0.18 0"/>
<feBlend mode="normal" in2="BackgroundImageFix" result="effect1_dropShadow"/>
<feBlend mode="normal" in="SourceGraphic" in2="effect1_dropShadow" result="shape"/>
</filter>
</defs>
</svg>
