<?xml version="1.0" encoding="UTF-8" standalone="no"?>
<!DOCTYPE svg PUBLIC "-//W3C//DTD SVG 1.1//EN" "http://www.w3.org/Graphics/SVG/1.1/DTD/svg11.dtd">
<svg version="1.1" xmlns="http://www.w3.org/2000/svg" xmlns:xlink="http://www.w3.org/1999/xlink" preserveAspectRatio="xMidYMid meet" viewBox="0 0 1700 400" width="1700" height="400"><defs><path d="M322.22 128.72C360.2 128.72 381.3 128.72 385.51 128.72C391.26 128.72 397.14 129.93 403.17 132.35C409.2 134.78 414.69 138.28 419.64 142.83C424.59 147.39 428.58 153.08 431.59 159.92C434.6 166.76 436.11 174.26 436.11 182.47C436.11 188.24 435.14 194.21 433.2 200.35C431.26 206.5 427.78 212.54 422.76 218.46C417.73 224.38 411.78 228.83 404.89 231.78C398 234.73 391.54 236.23 385.51 236.23C383.5 236.23 373.46 236.23 355.37 236.23L355.37 287.49L322.22 287.49L322.22 128.72ZM383.58 204.34C386.59 204.34 389.6 203.5 392.61 201.84C395.62 200.18 398.11 197.78 400.04 194.66C401.98 191.55 402.95 187.48 402.95 182.47C402.95 178.37 402.16 174.61 400.59 171.2C399 167.78 396.53 165.17 393.15 163.34C389.78 161.52 386.59 160.6 383.58 160.6C381.69 160.6 372.29 160.6 355.37 160.6L355.37 204.34C372.29 204.34 381.69 204.34 383.58 204.34Z" id="alHnGBuHG"></path><path d="M447.59 172.68L479.66 172.68C479.66 182.11 479.66 187.35 479.66 188.39C482.1 182.63 486.12 178.15 491.72 174.95C497.32 171.76 503.78 170.16 511.1 170.16C513.26 170.16 516.05 170.39 519.5 170.84C519.5 174.03 519.5 199.55 519.5 202.74C516.2 201.98 512.61 201.61 508.73 201.61C499.68 201.61 492.59 204.27 487.42 209.58C482.25 214.9 479.66 222.19 479.66 231.45C479.66 235.19 479.66 253.87 479.66 287.49L447.59 287.49L447.59 172.68Z" id="btdnwY839"></path><path d="M761.64 169.76L793.71 169.76C793.71 209.12 793.71 230.98 793.71 235.36C793.71 242.04 795.36 247.31 798.66 251.18C801.97 255.05 806.55 256.99 812.44 256.99C818.19 256.99 822.95 254.83 826.75 250.5C830.56 246.18 832.45 240.73 832.45 234.21C832.45 229.91 832.45 208.42 832.45 169.74L864.53 169.74C864.53 214.44 864.53 239.27 864.53 244.23C864.53 247.57 865 250.54 865.92 253.11C866.85 255.69 869.05 256.98 872.49 256.98C872.85 256.95 874.64 256.8 877.87 256.53C877.87 273.48 877.87 282.89 877.87 284.77C874.43 285.99 869.61 286.59 863.44 286.59C856.26 286.59 850.38 285.22 845.78 282.49C840.76 279.15 837.52 275.04 836.1 270.19C833.66 275.35 829.71 279.46 824.26 282.49C818.81 285.52 812.12 287.04 804.23 287.04C790.74 287.04 780.25 282.83 772.79 274.41C765.36 266 761.64 254.35 761.64 239.46C761.64 230.17 761.64 206.93 761.64 169.76Z" id="c1lEwsU8do"></path><path d="M890.49 202.9C893.57 195.37 897.88 188.89 903.4 183.42C908.93 177.95 915.35 173.7 922.68 170.66C929.99 167.63 937.68 166.1 945.71 166.1C963.51 166.1 978.58 173.24 990.92 187.52C988.9 189.64 972.7 206.59 970.68 208.71C967.24 204.76 963.54 201.81 959.58 199.82C955.63 197.85 951 196.87 945.7 196.87C937.94 196.87 931.37 199.71 926 205.42C920.62 211.11 917.92 218.29 917.92 226.95C917.92 235.45 920.61 242.55 926 248.24C931.37 253.93 937.94 256.79 945.7 256.79C951 256.79 955.63 255.81 959.58 253.84C963.54 251.86 967.22 248.91 970.68 244.95C972.7 247.07 988.9 264.02 990.92 266.14C978.58 280.41 963.51 287.56 945.71 287.56C939.69 287.56 933.8 286.69 928.05 284.93C922.31 283.19 917.04 280.72 912.23 277.53C907.43 274.34 902.87 270.13 898.55 264.89C894.25 259.65 891.06 253.57 888.97 246.67C886.9 239.72 885.86 233.16 885.86 226.93C885.86 218.43 887.4 210.42 890.49 202.9Z" id="a6RpaFTSP"></path><path d="M1011.59 200.5L997.39 200.5L997.39 169.76L1011.59 169.76L1011.59 125.79L1042.81 125.79L1042.81 169.76L1066.92 169.76L1066.92 200.5L1042.81 200.5C1042.81 225.11 1042.81 238.78 1042.81 241.51C1042.81 246.98 1043.93 250.89 1046.15 253.25C1048.37 255.61 1051.85 256.78 1056.59 256.78C1058.31 256.78 1061.04 256.48 1064.78 255.86C1064.78 258.87 1064.78 282.93 1064.78 285.94C1060.47 287 1055.23 287.54 1049.06 287.54C1024.08 287.53 1011.59 273.86 1011.59 246.52C1011.59 240.38 1011.59 225.04 1011.59 200.5Z" id="bWu2YYsN5"></path><path d="M1084.8 125.79L1234.34 125.79L1234.34 157.69L1117.96 157.69L1117.96 190.28L1177.82 190.28L1177.82 221.49L1117.96 221.49L1117.96 284.59L1084.8 284.59L1084.8 125.79Z" id="b6xrp1GWcY"></path><path d="M1202.13 125.78L1234.22 125.78C1234.22 195.49 1234.22 234.22 1234.22 241.96C1234.22 247.12 1235.22 250.89 1237.23 253.23C1239.24 255.6 1242.4 256.76 1246.71 256.76C1249.72 256.76 1252.3 256.47 1254.46 255.84C1254.46 258.85 1254.46 282.93 1254.46 285.94C1250.73 287 1245.63 287.54 1239.18 287.54C1227.42 287.54 1218.31 284.28 1211.84 277.75C1205.36 271.2 1202.13 261.04 1202.13 247.2C1202.13 231.01 1202.13 190.54 1202.13 125.78Z" id="j9LF6C8zE"></path><path d="M1265.85 204.16C1268.58 196.87 1272.39 190.49 1277.26 185.02C1282.14 179.55 1287.89 175.31 1294.48 172.26C1301.08 169.23 1308.12 167.7 1315.58 167.7C1319.46 167.7 1323.69 168.23 1328.29 169.3C1332.89 170.36 1337.02 172.31 1340.67 175.12C1344.33 177.93 1346.74 181.15 1347.89 184.8C1347.89 183.8 1347.89 178.79 1347.89 169.77L1379.96 169.77C1379.96 214.47 1379.96 239.3 1379.96 244.26C1379.96 247.61 1380.43 250.57 1381.36 253.14C1382.28 255.72 1384.47 257.01 1387.92 257.01C1388.28 256.98 1390.07 256.83 1393.3 256.56C1393.3 273.51 1393.3 282.92 1393.3 284.81C1389.86 286.02 1385.04 286.62 1378.87 286.62C1371.69 286.62 1365.81 285.26 1361.21 282.52C1356.19 279.18 1352.96 275.07 1351.53 270.22C1344.49 281.31 1332.51 286.86 1315.58 286.86C1308.12 286.86 1301.08 285.33 1294.48 282.3C1287.89 279.27 1282.14 275.01 1277.26 269.54C1272.39 264.07 1268.58 257.69 1265.85 250.4C1263.13 243.11 1261.76 235.36 1261.76 227.16C1261.76 219.11 1263.13 211.45 1265.85 204.16ZM1301.81 247.56C1307.12 253.11 1313.66 255.88 1321.4 255.88C1324.98 255.88 1329.01 254.93 1333.46 253.03C1337.91 251.13 1341.75 247.79 1344.98 243C1348.21 238.22 1349.83 232.95 1349.83 227.18C1349.83 221.41 1348.21 216.13 1344.98 211.35C1341.75 206.57 1337.91 203.22 1333.46 201.33C1329.01 199.43 1324.98 198.48 1321.4 198.48C1313.64 198.48 1307.12 201.25 1301.81 206.8C1296.51 212.32 1293.85 219.11 1293.85 227.16C1293.85 235.22 1296.51 242.01 1301.81 247.56Z" id="a4AenWalLO"></path><path d="M1407.52 169.76L1439.59 169.76C1439.59 179.19 1439.59 184.42 1439.59 185.47C1442.03 179.7 1446.06 175.23 1451.66 172.03C1457.25 168.84 1463.72 167.24 1471.04 167.24C1473.19 167.24 1475.99 167.47 1479.44 167.92C1479.44 171.11 1479.44 196.63 1479.44 199.82C1476.13 199.06 1472.55 198.69 1468.67 198.69C1459.62 198.69 1452.52 201.34 1447.35 206.66C1442.18 211.98 1439.59 219.27 1439.59 228.53C1439.59 232.27 1439.59 250.95 1439.59 284.57L1407.52 284.57L1407.52 169.76Z" id="bR9Mi4reQ"></path><path d="M1485.46 226.93C1485.46 218.12 1486.93 209.96 1489.87 202.45C1492.81 194.92 1496.94 188.52 1502.26 183.2C1507.56 177.89 1513.8 173.83 1520.99 171.01C1528.16 168.2 1535.91 166.8 1544.24 166.8C1552.28 166.8 1559.79 168.28 1566.74 171.25C1573.7 174.2 1579.65 178.38 1584.6 183.78C1589.55 189.17 1593.36 195.44 1596.02 202.57C1598.68 209.71 1600 217.23 1600 225.13C1599.97 225.86 1599.83 229.5 1599.57 236.06C1550.36 236.06 1523.02 236.06 1517.55 236.06C1517.83 241.06 1519.49 245.4 1522.5 249.04C1525.51 252.67 1529.29 255.19 1533.8 256.56C1538.32 257.93 1542.53 258.61 1546.39 258.61C1550.4 258.61 1554.65 257.93 1559.1 256.56C1563.55 255.19 1568.13 252.16 1572.88 247.45C1574.75 249.34 1589.74 264.46 1591.61 266.35C1578.83 280.33 1563.26 287.31 1544.89 287.31C1536.28 287.31 1528.27 285.91 1520.88 283.1C1513.49 280.28 1507.18 276.26 1501.93 271.02C1496.69 265.78 1492.63 259.48 1489.77 252.11C1486.9 244.75 1485.46 236.66 1485.46 227.85C1485.46 227.66 1485.46 227.02 1485.46 226.93ZM1567.71 213.95C1567.71 211.53 1566.91 208.82 1565.34 205.87C1563.76 202.9 1560.99 200.32 1557.06 198.13C1553.1 195.92 1548.84 194.81 1544.24 194.81C1537.35 194.81 1531.36 196.68 1526.26 200.4C1521.16 204.13 1518.4 208.63 1517.98 213.95C1527.92 213.95 1562.73 213.95 1567.71 213.95Z" id="b1th4Xw6fB"></path><path d="M737.66 252.91C736.72 250.33 736.27 247.37 736.27 244.03C736.27 236.13 736.27 196.65 736.27 125.58L704.2 125.58C704.2 160.97 704.2 180.64 704.2 184.57C703.05 180.93 700.64 177.7 696.98 174.89C693.32 172.07 689.19 170.14 684.6 169.07C680 168.01 675.77 167.47 671.89 167.47C664.42 167.47 657.39 168.99 650.79 172.03C647.95 173.33 645.31 174.9 642.8 176.67C627.18 188.08 620.94 211.57 618.64 223.14C618.62 223.5 618.1 226.17 618.1 226.39C617.92 227.49 617.7 228.7 617.44 229.95C617.44 230.01 617.43 230.06 617.43 230.06C617.42 230.06 617.41 230.06 617.41 230.06C617.34 230.43 617.23 230.82 617.16 231.19C617.15 231.25 617.15 231.3 617.15 231.3C617.14 231.3 617.13 231.3 617.13 231.3C615.87 236.88 613.69 243.22 609.92 247.62C609.49 248.1 609.05 248.54 608.61 248.97C608.42 249.16 608.24 249.36 608.05 249.53C604.51 252.81 600.69 254.68 597.46 255.7C597.41 255.72 597.37 255.74 597.33 255.75C596.12 256.12 595.03 256.37 594.05 256.56C593.83 256.61 593.61 256.65 593.39 256.68C592.95 256.76 592.55 256.81 592.18 256.85C591.41 256.93 590.63 257.01 589.88 257.01C586.15 257.01 582.09 256.03 577.71 254.06C573.33 252.08 569.56 248.58 566.42 243.58C563.26 238.57 561.68 233.02 561.68 226.95C561.68 218.6 564.42 211.49 569.87 205.65C575.32 199.8 581.99 196.88 589.89 196.88C595.49 196.88 600.66 198.59 605.39 202.01C608.08 203.95 610.27 206.13 612.03 208.49C614.47 199.31 619.06 188.15 627.71 179.58C623.29 176 618.41 173.05 613.05 170.8C605.66 167.69 597.94 166.13 589.91 166.13C581.72 166.13 573.94 167.69 566.55 170.8C559.16 173.91 552.69 178.27 547.17 183.9C541.64 189.53 537.34 196.06 534.25 203.49C531.17 210.93 529.63 218.75 529.63 226.95C529.63 235.15 531.17 242.97 534.25 250.4C537.34 257.85 541.64 264.38 547.17 269.99C552.69 275.62 559.16 279.99 566.55 283.1C573.94 286.2 581.72 287.76 589.91 287.76C596.45 287.76 602.78 286.67 608.89 284.6C608.89 284.61 608.88 284.64 608.87 284.65C609.45 284.45 609.99 284.21 610.55 284C611.39 283.69 612.22 283.44 613.05 283.08C617.26 281.31 621.16 279.07 624.79 276.49C625.7 275.84 626.59 275.18 627.44 274.51C627.75 274.27 628.09 274.03 628.4 273.77C629.81 272.6 631.1 271.41 632.34 270.18C632.41 270.11 632.48 270.05 632.54 269.99C632.6 269.94 632.65 269.88 632.69 269.82C632.94 269.57 633.2 269.32 633.44 269.07C634.31 268.16 635.11 267.21 635.89 266.28C636.82 265.19 637.66 264.05 638.49 262.9C638.71 262.59 638.98 262.26 639.2 261.95C641.7 258.38 643.84 254.54 645.56 250.4C648.07 244.34 649.51 238.01 649.98 231.44C650.23 228.64 650.2 226.93 650.2 226.93C650.2 220 652.19 214.01 656.12 208.94C656.76 208.12 657.43 207.33 658.18 206.55C663.48 201 670.02 198.23 677.76 198.23C681.35 198.23 685.37 199.18 689.83 201.08C694.28 202.98 698.11 206.32 701.34 211.11C704.58 215.89 706.19 221.16 706.19 226.93C706.19 232.7 704.58 237.98 701.34 242.76C698.11 247.54 694.28 250.89 689.83 252.78C685.37 254.68 681.35 255.63 677.76 255.63C670.01 255.63 663.48 252.86 658.18 247.31C657.46 246.56 656.8 245.77 656.17 244.98C655.37 248.01 654.38 250.99 653.17 253.92C649.89 261.8 645.3 268.82 639.55 274.9C642.99 277.73 646.74 280.16 650.85 282.05C657.45 285.08 664.48 286.61 671.95 286.61C688.89 286.61 700.86 281.07 707.9 269.97C709.34 274.84 712.55 278.94 717.58 282.27C722.16 285.01 728.05 286.38 735.24 286.38C741.41 286.38 746.21 285.77 749.67 284.56C749.67 282.67 749.67 273.26 749.67 256.31L744.23 256.78C740.47 255.92 738.28 254.63 737.66 252.91ZM625.65 257.8C626.58 259.56 627.59 261.24 628.68 262.87C627.59 261.24 626.58 259.56 625.65 257.8C625.65 257.8 625.65 257.8 625.65 257.8Z" id="a5qvhXumCl"></path><path d="M284.25 136.44C288.16 136.44 291.32 139.6 291.32 143.51C291.32 153.83 291.32 177.67 291.32 187.98C291.32 192 288.23 195.35 284.22 195.66C253.18 198.09 167.19 204.83 136.15 207.27C132.11 207.58 128.51 204.73 127.9 200.72C125.91 187.87 121.41 158.6 119.51 146.3C118.71 141.11 122.72 136.44 127.97 136.44C160.64 136.44 251 136.44 284.25 136.44Z" id="bNMjMpYpa"></path><path d="M1635 269.99C1635 279.65 1627.16 287.49 1617.5 287.49C1607.84 287.49 1600 279.65 1600 269.99C1600 260.34 1607.84 252.49 1617.5 252.49C1627.16 252.49 1635 260.34 1635 269.99Z" id="b3f26xtCa"></path><path d="M288.4 213.54C292.29 213.23 295.7 216.13 296.02 220.02C296.86 230.3 298.79 254.07 299.63 264.35C299.95 268.36 297.14 271.94 293.17 272.58C262.43 277.52 177.27 291.21 146.53 296.16C142.53 296.8 138.71 294.25 137.77 290.31C134.75 277.65 127.89 248.85 125 236.74C123.78 231.64 127.4 226.65 132.63 226.22C165.19 223.57 255.25 216.24 288.4 213.54Z" id="a7fGUYN3c"></path></defs><g><g><g><use xlink:href="#alHnGBuHG" opacity="1" fill="#333333" fill-opacity="1"></use><g><use xlink:href="#alHnGBuHG" opacity="1" fill-opacity="0" stroke="#000000" stroke-width="1" stroke-opacity="0"></use></g></g><g><use xlink:href="#btdnwY839" opacity="1" fill="#333333" fill-opacity="1"></use><g><use xlink:href="#btdnwY839" opacity="1" fill-opacity="0" stroke="#000000" stroke-width="1" stroke-opacity="0"></use></g></g><g><use xlink:href="#c1lEwsU8do" opacity="1" fill="#333333" fill-opacity="1"></use><g><use xlink:href="#c1lEwsU8do" opacity="1" fill-opacity="0" stroke="#000000" stroke-width="1" stroke-opacity="0"></use></g></g><g><use xlink:href="#a6RpaFTSP" opacity="1" fill="#333333" fill-opacity="1"></use><g><use xlink:href="#a6RpaFTSP" opacity="1" fill-opacity="0" stroke="#000000" stroke-width="1" stroke-opacity="0"></use></g></g><g><use xlink:href="#bWu2YYsN5" opacity="1" fill="#333333" fill-opacity="1"></use><g><use xlink:href="#bWu2YYsN5" opacity="1" fill-opacity="0" stroke="#000000" stroke-width="1" stroke-opacity="0"></use></g></g><g><use xlink:href="#b6xrp1GWcY" opacity="1" fill="#333333" fill-opacity="1"></use><g><use xlink:href="#b6xrp1GWcY" opacity="1" fill-opacity="0" stroke="#000000" stroke-width="1" stroke-opacity="0"></use></g></g><g><use xlink:href="#j9LF6C8zE" opacity="1" fill="#333333" fill-opacity="1"></use><g><use xlink:href="#j9LF6C8zE" opacity="1" fill-opacity="0" stroke="#000000" stroke-width="1" stroke-opacity="0"></use></g></g><g><use xlink:href="#a4AenWalLO" opacity="1" fill="#333333" fill-opacity="1"></use><g><use xlink:href="#a4AenWalLO" opacity="1" fill-opacity="0" stroke="#000000" stroke-width="1" stroke-opacity="0"></use></g></g><g><use xlink:href="#bR9Mi4reQ" opacity="1" fill="#333333" fill-opacity="1"></use><g><use xlink:href="#bR9Mi4reQ" opacity="1" fill-opacity="0" stroke="#000000" stroke-width="1" stroke-opacity="0"></use></g></g><g><use xlink:href="#b1th4Xw6fB" opacity="1" fill="#333333" fill-opacity="1"></use><g><use xlink:href="#b1th4Xw6fB" opacity="1" fill-opacity="0" stroke="#000000" stroke-width="1" stroke-opacity="0"></use></g></g><g><use xlink:href="#a5qvhXumCl" opacity="1" fill="#333333" fill-opacity="1"></use><g><use xlink:href="#a5qvhXumCl" opacity="1" fill-opacity="0" stroke="#000000" stroke-width="1" stroke-opacity="0"></use></g></g><g><use xlink:href="#bNMjMpYpa" opacity="1" fill="#00ca9b" fill-opacity="1"></use></g><g><use xlink:href="#b3f26xtCa" opacity="1" fill="#3185fc" fill-opacity="1"></use></g><g><use xlink:href="#a7fGUYN3c" opacity="1" fill="#3185fc" fill-opacity="1"></use></g></g></g></svg>