<?xml version="1.0" encoding="UTF-8"?>
<svg viewBox="0 0 494 81" version="1.1" xmlns="http://www.w3.org/2000/svg" xmlns:xlink="http://www.w3.org/1999/xlink">
    <title>uniconsent</title>
    <defs></defs>
    <g id="Page-1" stroke="none" stroke-width="1" fill="none" fill-rule="evenodd">
        <g id="uniconsent">
            <g id="Group" transform="translate(10.000000, 9.000000)">
                <path d="M193.136,19.328 L178.304,22.208 C176.936,15.656 173.12,12.416 166.928,12.416 C158.144,12.416 153.032,19.328 153.032,31.208 C153.032,42.944 158.36,50.072 167.288,50.072 C171.248,50.072 174.632,48.416 176.72,45.536 C177.944,43.808 178.448,42.368 178.88,39.344 L193.856,41.576 C192.488,47.696 190.904,51.224 187.88,54.752 C183.416,59.864 176.432,62.6 167.72,62.6 C158.936,62.6 151.52,59.864 146.408,54.68 C141.08,49.28 138.056,40.856 138.056,31.208 C138.056,21.416 141.08,13.136 146.768,7.52 C151.736,2.696 159.008,0.032 167.432,0.032 C176.72,0.032 183.992,3.2 188.672,9.464 C190.976,12.416 192.2,15.08 193.136,19.328 Z M221.864,62.888 C207.392,62.888 198.176,53.672 198.176,39.2 C198.176,24.8 207.392,15.656 221.936,15.656 C236.48,15.656 245.696,24.8 245.696,39.056 C245.696,53.384 236.192,62.888 221.864,62.888 Z M222.008,26.456 C215.672,26.456 211.928,31.208 211.928,39.128 C211.928,47.12 215.672,51.944 221.936,51.944 C228.2,51.944 231.8,47.264 231.8,39.272 C231.8,31.208 228.128,26.456 222.008,26.456 Z M266.432,61.232 L251.528,61.232 C251.96,57.848 252.104,54.824 252.104,50.36 L252.104,28.184 C252.104,23.216 251.96,20.192 251.528,17.312 L265.856,17.312 L265.856,20.336 C265.856,20.768 265.784,21.848 265.784,22.352 C270.32,18.032 274.712,16.232 280.616,16.232 C285.584,16.232 289.544,17.6 292.208,20.264 C295.088,23.144 296.312,26.672 296.312,32.36 L296.312,50.432 C296.312,54.608 296.528,58.208 296.888,61.232 L281.912,61.232 C282.344,57.776 282.488,54.752 282.488,50.36 L282.488,35.6 C282.488,32.72 282.2,31.496 281.336,30.272 C280.4,28.976 278.744,28.256 276.584,28.256 C272.552,28.256 268.952,30.776 265.856,35.816 L265.856,50.36 C265.856,54.464 266,57.488 266.432,61.232 Z M302.72,48.128 L316.976,46.544 C317.696,50.288 320.144,51.944 324.968,51.944 C329.288,51.944 331.736,50.72 331.736,48.488 C331.736,47.408 331.16,46.472 330.152,45.896 C329.144,45.32 328.208,45.032 324.248,44.24 C318.776,43.16 315.968,42.44 313.592,41.648 C310.136,40.352 307.76,38.696 306.392,36.536 C305.24,34.592 304.592,32.144 304.592,29.696 C304.592,21.056 311.864,15.8 323.888,15.8 C330.728,15.8 335.84,17.312 339.224,20.408 C341.6,22.496 342.752,24.584 343.904,28.616 L330.008,30.128 C329.648,27.176 327.848,25.88 323.96,25.88 C320.216,25.88 317.912,27.104 317.912,28.976 C317.912,30.92 319.424,31.64 326.552,33.224 C333.608,34.736 335.84,35.384 338.36,36.68 C343.04,38.984 345.272,42.512 345.272,47.696 C345.272,51.512 343.976,54.968 341.6,57.272 C338.144,60.728 332.24,62.528 324.536,62.528 C315.464,62.528 309.056,60.08 305.6,55.328 C304.16,53.312 303.44,51.584 302.72,48.128 Z M395.24,43.304 L362.84,43.304 C363.56,49.136 366.944,52.232 372.632,52.232 C375.512,52.232 378.032,51.296 379.904,49.568 C380.984,48.56 381.488,47.768 382.064,45.896 L394.592,49.424 C392.936,53.168 391.856,54.824 389.84,56.84 C385.736,60.872 379.976,62.96 372.848,62.96 C365.792,62.96 360.248,60.944 356.144,56.84 C351.896,52.52 349.592,46.4 349.592,39.272 C349.592,25.016 358.736,15.584 372.488,15.584 C383.72,15.584 391.568,21.704 394.088,32.432 C394.664,34.736 394.952,37.76 395.168,41.864 C395.168,42.152 395.168,42.584 395.24,43.304 Z M363.056,33.368 L381.56,33.368 C380.552,28.76 377.456,26.312 372.488,26.312 C367.376,26.312 364.28,28.616 363.056,33.368 Z M415.904,61.232 L401,61.232 C401.432,57.848 401.576,54.824 401.576,50.36 L401.576,28.184 C401.576,23.216 401.432,20.192 401,17.312 L415.328,17.312 L415.328,20.336 C415.328,20.768 415.256,21.848 415.256,22.352 C419.792,18.032 424.184,16.232 430.088,16.232 C435.056,16.232 439.016,17.6 441.68,20.264 C444.56,23.144 445.784,26.672 445.784,32.36 L445.784,50.432 C445.784,54.608 446,58.208 446.36,61.232 L431.384,61.232 C431.816,57.776 431.96,54.752 431.96,50.36 L431.96,35.6 C431.96,32.72 431.672,31.496 430.808,30.272 C429.872,28.976 428.216,28.256 426.056,28.256 C422.024,28.256 418.424,30.776 415.328,35.816 L415.328,50.36 C415.328,54.464 415.472,57.488 415.904,61.232 Z M459.536,17.312 L459.536,15.8 C459.536,12.2 459.392,9.32 458.96,5.936 L473.648,5.936 C473.288,8.888 473.072,12.344 473.072,15.8 L473.072,17.312 L475.664,17.312 C478.832,17.312 480.488,17.24 482.72,16.952 L482.72,28.904 C480.56,28.616 478.688,28.472 476.096,28.472 L473.072,28.472 L473.072,46.904 C473.072,48.92 473.432,49.928 474.368,50.576 C475.16,51.08 476.312,51.368 477.68,51.368 C479.552,51.368 480.92,51.008 482.72,50.072 L483.8,61.016 C480.56,62.024 477.752,62.456 473.864,62.456 C468.968,62.456 465.584,61.664 463.28,59.936 C460.544,57.848 459.536,55.4 459.536,50.504 L459.536,28.472 L456.8,28.472 C454.496,28.472 452.624,28.616 450.536,28.904 L450.536,16.88 C452.624,17.168 454.424,17.312 456.944,17.312 L459.536,17.312 Z" id="UniConsent" fill="#000000"></path>
                <path d="M78.584,61.232 L63.68,61.232 C64.112,57.848 64.256,54.824 64.256,50.36 L64.256,28.184 C64.256,23.216 64.112,20.192 63.68,17.312 L78.008,17.312 L78.008,20.336 C78.008,20.768 77.936,21.848 77.936,22.352 C82.472,18.032 86.864,16.232 92.768,16.232 C97.736,16.232 101.696,17.6 104.36,20.264 C107.24,23.144 108.464,26.672 108.464,32.36 L108.464,50.432 C108.464,54.608 108.68,58.208 109.04,61.232 L94.064,61.232 C94.496,57.776 94.64,54.752 94.64,50.36 L94.64,35.6 C94.64,32.72 94.352,31.496 93.488,30.272 C92.552,28.976 90.896,28.256 88.736,28.256 C84.704,28.256 81.104,30.776 78.008,35.816 L78.008,50.36 C78.008,54.464 78.152,57.488 78.584,61.232 Z" id="Path" fill="#556080"></path>
                <polygon id="Path" fill="#556080" points="116.744 1.328 131.36 1.328 131.36 12.128 116.744 12.128"></polygon>
                <path d="M116.528,17.312 L131.576,17.312 C131.144,20.264 131,23.144 131,28.184 L131,50.36 C131,54.248 131.216,58.136 131.576,61.232 L116.528,61.232 C116.96,57.704 117.104,54.968 117.104,50.36 L117.104,28.184 C117.104,23.504 116.96,20.552 116.528,17.312 Z" id="Path" fill="#556080"></path>
                <path d="M39.992,1.328 L55.544,1.328 C55.112,4.424 54.968,7.016 54.968,12.2 L54.968,36.968 C54.968,53.384 45.104,62.672 27.752,62.672 C18.824,62.672 11.552,60.152 7.232,55.616 C3.056,51.152 0.896,44.888 0.896,36.824 L0.896,12.2 C0.896,7.232 0.752,4.064 0.32,1.328 L15.872,1.328 C15.44,3.992 15.296,6.872 15.296,12.2 L15.296,36.968 C15.296,46.04 19.4,50.36 27.824,50.36 C36.464,50.36 40.568,46.04 40.568,36.968 L40.568,12.2 C40.568,6.8 40.424,4.568 39.992,1.328 Z" id="Path" fill="#556080"></path>
            </g>
            <g id="042-shield">
                <path d="M34,0 C34,0 23.6964545,11.1724138 0,11.1724138 L0,37.8256034 C0,51.7436379 6.68872727,65.1658966 18.7989091,73.7658621 C23.0844545,76.8103448 28.1396364,79.4288793 34,81 C39.8603636,79.4288793 44.914,76.8103448 49.2010909,73.7658621 C61.3112727,65.1658966 68,51.7436379 68,37.8256034 L68,11.1724138 C44.3035455,11.1724138 34,0 34,0 Z" id="Shape" fill="#556080" fill-rule="nonzero"></path>
                <path d="M33.5,72 C30.2491562,70.8407063 27.1024375,69.1817891 24.1165,67.0482991 C14.6503125,60.2873765 9,49.3527184 9,37.797358 L9,19.0691292 C20.3174687,17.7567475 28.3534687,14.1786635 33.5,11 C38.6465312,14.1786635 46.6825312,17.7567475 58,19.0691292 L58,37.797358 C58,49.3527184 52.3496875,60.2873765 42.8850312,67.0482991 C39.8975625,69.1817891 36.7508438,70.8407063 33.5,72 Z" id="Shape" fill="#4FBA6F" fill-rule="nonzero"></path>
                <path d="M52.4745773,28.3573401 C51.8332457,27.8315443 50.8604567,27.8936575 50.2992916,28.4931226 L29.799806,50.4422109 L18.6320032,39.9782954 C18.0292132,39.4134982 17.0548825,39.4134982 16.4520925,39.9782954 C15.8493025,40.5430927 15.8493025,41.4560129 16.4520925,42.0208102 L28.7853921,53.5767632 C29.0752247,53.8483281 29.4668069,54 29.8753475,54 C29.8923058,54 29.909264,54 29.9262223,54 C30.3532628,53.9869996 30.7540951,53.8078823 31.0346776,53.5074275 L52.6179519,30.3955214 C53.1791171,29.7946118 53.1143672,28.8816915 52.4745773,28.3573401 Z" id="Shape" fill="#FFFFFF" fill-rule="nonzero"></path>
            </g>
        </g>
    </g>
</svg>